<svg width="40" height="40" viewBox="0 0 40 40" fill="none" xmlns="http://www.w3.org/2000/svg">
<mask id="mask0_1_1566" style="mask-type:alpha" maskUnits="userSpaceOnUse" x="0" y="0" width="40" height="40">
<rect width="40" height="40" fill="#D9D9D9"/>
</mask>
<g mask="url(#mask0_1_1566)">
<path d="M19.9998 37.3221C15.93 36.3058 12.5804 33.9778 9.951 30.3384C7.32156 26.6989 6.00684 22.688 6.00684 18.3055V7.84714L19.9998 2.62256L34.0081 7.84714V18.3055C34.0081 22.688 32.6909 26.6989 30.0564 30.3384C27.4217 33.9778 24.0695 36.3058 19.9998 37.3221ZM19.9998 16.0871L10.4485 23.4988C11.0004 25.1852 11.7996 26.7352 12.846 28.1488C13.8927 29.5624 15.1096 30.7817 16.4968 31.8067V24.8305H23.5027V31.8067C24.8899 30.7817 26.1068 29.5624 27.1535 28.1488C28.1999 26.7352 28.9991 25.1852 29.551 23.4988L19.9998 16.0871ZM19.9998 6.53089L9.67975 10.4167V17.9917C9.67975 18.2106 9.69003 18.4501 9.71059 18.7101C9.73114 18.9703 9.75461 19.2046 9.781 19.413L19.9998 11.4546L30.2185 19.413C30.2449 19.2046 30.2684 18.9703 30.2889 18.7101C30.3095 18.4501 30.3198 18.2106 30.3198 17.9917V10.4167L19.9998 6.53089Z" fill="#DEFF4E"/>
</g>
</svg>
