<svg width="32" height="32" viewBox="0 0 32 32" fill="none" xmlns="http://www.w3.org/2000/svg">
<mask id="mask0_776_1497" style="mask-type:alpha" maskUnits="userSpaceOnUse" x="0" y="0" width="32" height="32">
<rect width="32" height="32" fill="#D9D9D9"/>
</mask>
<g mask="url(#mask0_776_1497)">
<path d="M4.80454 27.1945V14.4528L2.55888 16.1722L0.796875 13.8402L15.9989 2.10449L31.2055 13.8478L29.4325 16.1722L15.9989 5.80249L7.72388 12.1812V24.2752H14.4625V27.1945H4.80454ZM23.3322 29.7992C22.3273 30.4458 21.284 30.7229 20.2022 30.6305C19.1204 30.538 18.1785 30.0888 17.3765 29.2828C16.5748 28.4766 16.1277 27.5278 16.0352 26.4365C15.9428 25.3454 16.2199 24.311 16.8665 23.3335C16.2199 22.3286 15.9428 21.2853 16.0352 20.2035C16.1277 19.1217 16.5769 18.1798 17.3829 17.3778C18.1891 16.576 19.1379 16.1289 20.2292 16.0365C21.3203 15.944 22.3547 16.2212 23.3322 16.8678C24.3371 16.2212 25.3804 15.944 26.4622 16.0365C27.544 16.1289 28.4859 16.5782 29.2879 17.3842C30.0897 18.1904 30.5368 19.1392 30.6292 20.2305C30.7217 21.3216 30.4445 22.3559 29.7979 23.3335C30.4445 24.3384 30.7217 25.3817 30.6292 26.4635C30.5368 27.5453 30.0875 28.4872 29.2815 29.2892C28.4753 30.0909 27.5265 30.538 26.4352 30.6305C25.3441 30.7229 24.3098 30.4458 23.3322 29.7992ZM23.3322 26.5822L24.8389 27.6478C25.2458 27.9307 25.6939 28.0536 26.1832 28.0165C26.6725 27.9796 27.0889 27.7853 27.4322 27.4335C27.7807 27.0917 27.9742 26.6723 28.0129 26.1752C28.0515 25.678 27.9337 25.233 27.6592 24.8402L26.5809 23.3335L27.6592 21.8268C27.9337 21.4199 28.0523 20.9718 28.0152 20.4825C27.9783 19.9932 27.784 19.5768 27.4322 19.2335C27.0904 18.885 26.671 18.6915 26.1739 18.6528C25.6768 18.6142 25.2318 18.732 24.8389 19.0065L23.3322 20.0848L21.8255 19.0065C21.4187 18.732 20.9705 18.6134 20.4812 18.6505C19.9919 18.6874 19.5755 18.8817 19.2322 19.2335C18.8838 19.5753 18.6902 19.9947 18.6515 20.4918C18.6129 20.9889 18.735 21.4339 19.0179 21.8268L20.0835 23.3335L19.0179 24.8402C18.735 25.247 18.6121 25.6952 18.6492 26.1845C18.6861 26.6738 18.8804 27.0902 19.2322 27.4335C19.574 27.7819 19.9934 27.9755 20.4905 28.0142C20.9877 28.0528 21.4327 27.9307 21.8255 27.6478L23.3322 26.5822ZM23.3345 24.9852C23.8005 24.9852 24.192 24.826 24.5089 24.5078C24.8255 24.1894 24.9839 23.7972 24.9839 23.3312C24.9839 22.8652 24.8248 22.4737 24.5065 22.1568C24.1881 21.8402 23.7959 21.6818 23.3299 21.6818C22.8639 21.6818 22.4724 21.8409 22.1555 22.1592C21.8389 22.4776 21.6805 22.8698 21.6805 23.3358C21.6805 23.8018 21.8397 24.1933 22.1579 24.5102C22.4763 24.8268 22.8685 24.9852 23.3345 24.9852Z" fill="#292222"/>
</g>
</svg>
