<svg width="32" height="32" viewBox="0 0 32 32" fill="none" xmlns="http://www.w3.org/2000/svg">
<mask id="mask0_776_3854" style="mask-type:alpha" maskUnits="userSpaceOnUse" x="0" y="0" width="32" height="32">
<rect width="32" height="32" fill="#D9D9D9"/>
</mask>
<g mask="url(#mask0_776_3854)">
<path d="M22.5029 14.7668C22.834 14.4399 22.9996 14.0395 22.9996 13.5655C22.9996 13.0915 22.8346 12.691 22.5046 12.3641C22.1746 12.0375 21.7741 11.8741 21.3032 11.8741C20.8323 11.8741 20.4314 12.0375 20.1006 12.3641C19.7697 12.691 19.6042 13.0915 19.6042 13.5655C19.6042 14.0395 19.7692 14.4399 20.0992 14.7668C20.4292 15.0935 20.8297 15.2568 21.3006 15.2568C21.7712 15.2568 22.172 15.0935 22.5029 14.7668ZM9.97555 12.3278H17.3082V9.60947H9.97555V12.3278ZM5.15822 28.5275C4.37755 25.9061 3.60589 23.2924 2.84322 20.6861C2.08055 18.0799 1.69922 15.4067 1.69922 12.6665C1.69922 10.4796 2.46233 8.62069 3.98855 7.0898C5.51477 5.55869 7.37244 4.79313 9.56155 4.79313H16.7482C17.4369 3.94869 18.2662 3.29313 19.2362 2.82646C20.2062 2.3598 21.2384 2.12646 22.3329 2.12646C23.0238 2.12646 23.6167 2.3708 24.1116 2.85946C24.6064 3.34813 24.8539 3.93791 24.8539 4.6288C24.8539 4.78724 24.8372 4.93947 24.8039 5.08547C24.7706 5.23124 24.7317 5.37435 24.6872 5.5148C24.6152 5.72147 24.5466 5.92991 24.4812 6.14013C24.4161 6.35013 24.3613 6.56902 24.3169 6.7968L26.9796 9.4598H30.2942V19.6955L26.3202 20.9538L24.0619 28.5275H15.8302V25.8608H13.3959V28.5275H5.15822ZM7.37422 25.5891H10.5646V22.9225H18.6429V25.5891H21.8362L23.9202 18.6605L27.3436 17.5521V12.4105H25.7432L21.3436 8.01047C21.3582 7.50447 21.4124 7.00891 21.5062 6.5238C21.6 6.03846 21.714 5.54769 21.8482 5.05146C21.0913 5.27569 20.3952 5.60569 19.7599 6.04147C19.1248 6.47702 18.6242 7.04447 18.2582 7.7438H9.56022C8.18844 7.7438 7.025 8.22124 6.06989 9.17613C5.115 10.1312 4.63755 11.2947 4.63755 12.6665C4.63755 14.8916 4.94611 17.0648 5.56322 19.1861C6.18033 21.3072 6.784 23.4416 7.37422 25.5891Z" fill="#292222"/>
</g>
</svg>
