<svg width="104" height="34" viewBox="0 0 104 34" fill="none" xmlns="http://www.w3.org/2000/svg">
<g clip-path="url(#clip0_1852_228)">
<path d="M54.622 8.82187C54.622 9.98794 53.6831 10.9273 52.5176 10.9273C51.352 10.9273 50.4131 9.98794 50.4131 8.82187C50.4131 7.6558 51.3196 6.71647 52.5176 6.71647C53.7155 6.74886 54.622 7.68819 54.622 8.82187ZM45.9451 13.0651C45.9451 13.2594 45.9451 13.5833 45.9451 13.5833C45.9451 13.5833 44.9414 12.2877 42.8046 12.2877C39.2755 12.2877 36.5235 14.9761 36.5235 18.7011C36.5235 22.3936 39.2431 25.1145 42.8046 25.1145C44.9738 25.1145 45.9451 23.7864 45.9451 23.7864V24.3371C45.9451 24.5962 46.1394 24.7906 46.3984 24.7906H49.0209V12.6116C49.0209 12.6116 46.625 12.6116 46.3984 12.6116C46.1394 12.6116 45.9451 12.8383 45.9451 13.0651ZM45.9451 20.8713C45.4595 21.5839 44.4882 22.1993 43.3226 22.1993C41.2505 22.1993 39.664 20.9036 39.664 18.7011C39.664 16.4985 41.2505 15.2029 43.3226 15.2029C44.4558 15.2029 45.4918 15.8507 45.9451 16.5309V20.8713ZM50.9635 12.6116H54.0716V24.7906H50.9635V12.6116ZM97.3915 12.2877C95.2547 12.2877 94.251 13.5833 94.251 13.5833V6.74886H91.1428V24.7906C91.1428 24.7906 93.5387 24.7906 93.7654 24.7906C94.0244 24.7906 94.2186 24.5638 94.2186 24.3371V23.7864C94.2186 23.7864 95.2223 25.1145 97.3592 25.1145C100.888 25.1145 103.64 22.3936 103.64 18.7011C103.64 15.0085 100.888 12.2877 97.3915 12.2877ZM96.8735 22.1669C95.6756 22.1669 94.7367 21.5515 94.251 20.8389V16.4985C94.7367 15.8507 95.7727 15.1705 96.8735 15.1705C98.9456 15.1705 100.532 16.4661 100.532 18.6687C100.532 20.8713 98.9456 22.1669 96.8735 22.1669ZM89.524 17.5674V24.8229H86.4159V17.9237C86.4159 15.9155 85.7683 15.1057 84.02 15.1057C83.0811 15.1057 82.1098 15.5916 81.4946 16.3042V24.7906H78.3865V12.6116H80.8471C81.1061 12.6116 81.3004 12.8383 81.3004 13.0651V13.5833C82.2069 12.644 83.4048 12.2877 84.6028 12.2877C85.9626 12.2877 87.0958 12.6764 88.0023 13.4538C89.1031 14.3607 89.524 15.5268 89.524 17.5674ZM70.8427 12.2877C68.7059 12.2877 67.7022 13.5833 67.7022 13.5833V6.74886H64.594V24.7906C64.594 24.7906 66.9899 24.7906 67.2165 24.7906C67.4756 24.7906 67.6698 24.5638 67.6698 24.3371V23.7864C67.6698 23.7864 68.6735 25.1145 70.8103 25.1145C74.3394 25.1145 77.0914 22.3936 77.0914 18.7011C77.1238 15.0085 74.3718 12.2877 70.8427 12.2877ZM70.3247 22.1669C69.1268 22.1669 68.1878 21.5515 67.7022 20.8389V16.4985C68.1878 15.8507 69.2239 15.1705 70.3247 15.1705C72.3968 15.1705 73.9832 16.4661 73.9832 18.6687C73.9832 20.8713 72.3968 22.1669 70.3247 22.1669ZM61.9068 12.2877C62.8457 12.2877 63.3313 12.4496 63.3313 12.4496V15.3324C63.3313 15.3324 60.7412 14.4579 59.1224 16.3042V24.8229H56.0142V12.6116C56.0142 12.6116 58.4101 12.6116 58.6367 12.6116C58.8957 12.6116 59.09 12.8383 59.09 13.0651V13.5833C59.6728 12.9031 60.9355 12.2877 61.9068 12.2877ZM29.6273 23.6893C29.4654 23.3006 29.3035 22.8795 29.1416 22.5232C28.8826 21.9402 28.6236 21.3895 28.397 20.8713L28.3646 20.8389C26.1306 15.9802 23.7348 11.0568 21.2094 6.19821L21.1122 6.00387C20.8532 5.51801 20.5942 4.99975 20.3352 4.4815C20.0114 3.89846 19.6877 3.28304 19.1697 2.7C18.1336 1.40437 16.6443 0.691772 15.0578 0.691772C13.439 0.691772 11.982 1.40437 10.9136 2.63522C10.428 3.21826 10.0718 3.83368 9.74806 4.41672C9.48904 4.93497 9.23003 5.45322 8.97102 5.93909L8.87389 6.13343C6.38089 10.9921 3.95264 15.9155 1.71866 20.7741L1.68628 20.8389C1.45965 21.3571 1.20063 21.9078 0.94162 22.4908C0.779737 22.8471 0.617854 23.2358 0.455971 23.6569C0.0350747 24.8553 -0.0944318 25.989 0.0674513 27.1551C0.423594 29.5844 2.04242 31.625 4.27641 32.532C5.1182 32.8883 5.99237 33.0502 6.89892 33.0502C7.15793 33.0502 7.48169 33.0178 7.74071 32.9854C8.80914 32.8559 9.90994 32.4996 10.9784 31.8841C12.3058 31.1392 13.5685 30.0703 14.9931 28.5155C16.4176 30.0703 17.7127 31.1392 19.0078 31.8841C20.0762 32.4996 21.177 32.8559 22.2454 32.9854C22.5044 33.0178 22.8282 33.0502 23.0872 33.0502C23.9938 33.0502 24.9003 32.8883 25.7097 32.532C27.9761 31.625 29.5625 29.552 29.9187 27.1551C30.1777 26.0214 30.0482 24.8877 29.6273 23.6893ZM15.0254 25.3736C13.2771 23.171 12.1439 21.098 11.7554 19.3489C11.5935 18.6039 11.5611 17.9561 11.6583 17.373C11.723 16.8548 11.9173 16.4013 12.1763 16.0126C12.7915 15.1381 13.8275 14.5874 15.0254 14.5874C16.2234 14.5874 17.2918 15.1057 17.8746 16.0126C18.1336 16.4013 18.3279 16.8548 18.3926 17.373C18.4897 17.9561 18.4574 18.6363 18.2955 19.3489C17.907 21.0656 16.7738 23.1386 15.0254 25.3736ZM27.9437 26.896C27.7171 28.5803 26.5839 30.0379 24.9974 30.6857C24.2204 31.0096 23.3786 31.1068 22.5368 31.0096C21.7274 30.9124 20.918 30.6533 20.0762 30.1674C18.9106 29.5196 17.7451 28.5155 16.3853 27.0255C18.5221 24.4019 19.8172 22.0049 20.3028 19.8671C20.5295 18.863 20.5618 17.9561 20.4647 17.1139C20.3352 16.3042 20.0438 15.5592 19.5905 14.9113C18.5869 13.4538 16.9033 12.6116 15.0254 12.6116C13.1476 12.6116 11.464 13.4862 10.4603 14.9113C10.0071 15.5592 9.71568 16.3042 9.58617 17.1139C9.45667 17.9561 9.48904 18.8954 9.74806 19.8671C10.2337 22.0049 11.5611 24.4343 13.6656 27.0579C12.3382 28.5479 11.1403 29.552 9.97469 30.1998C9.1329 30.6857 8.32349 30.9448 7.51407 31.042C6.6399 31.1392 5.79811 31.0096 5.05345 30.7181C3.467 30.0703 2.33381 28.6127 2.10718 26.9283C2.01005 26.1186 2.0748 25.3088 2.39857 24.4019C2.4957 24.078 2.65758 23.754 2.81946 23.3654C3.0461 22.8471 3.30511 22.2965 3.56412 21.7458L3.5965 21.681C5.83049 16.8548 8.22636 11.9314 10.7194 7.13755L10.8165 6.9432C11.0755 6.45734 11.3345 5.93909 11.5935 5.45322C11.8525 4.93497 12.1439 4.44911 12.5001 4.02803C13.18 3.25065 14.0865 2.82957 15.0902 2.82957C16.0939 2.82957 17.0004 3.25065 17.6803 4.02803C18.0365 4.44911 18.3279 4.93497 18.5869 5.45322C18.8459 5.93909 19.1049 6.45734 19.3639 6.9432L19.461 7.13755C21.9217 11.9638 24.3175 16.8872 26.5515 21.7134V21.7458C26.8105 22.2641 27.0372 22.8471 27.2962 23.3654C27.4581 23.754 27.6199 24.078 27.7171 24.4019C27.9761 25.244 28.0732 26.0538 27.9437 26.896Z" fill="#A0FFE8"/>
</g>
<defs>
<clipPath id="clip0_1852_228">
<rect width="103.638" height="32.3584" fill="white" transform="translate(0 0.691345)"/>
</clipPath>
</defs>
</svg>
