<svg width="105" height="22" viewBox="0 0 105 22" fill="none" xmlns="http://www.w3.org/2000/svg">
<g clip-path="url(#clip0_1852_230)">
<path d="M59.6155 6.3087H55.7661C55.6091 6.3087 55.4584 6.37075 55.3474 6.4812C55.2363 6.59165 55.1739 6.74145 55.1739 6.89765V8.3185C54.2352 6.91974 52.5371 5.98771 50.5443 5.98771C46.0923 5.98771 43.2497 9.45372 43.2497 13.8238C43.2497 18.2822 46.2107 21.7202 50.5739 21.7202C52.7133 21.7202 54.2071 20.8161 55.1739 19.3305V20.8029C55.1739 20.9591 55.2363 21.1089 55.3474 21.2193C55.4584 21.3298 55.6091 21.3918 55.7661 21.3918H59.6155C59.7726 21.3918 59.9232 21.3298 60.0343 21.2193C60.1453 21.1089 60.2077 20.9591 60.2077 20.8029V6.89912C60.2079 6.82166 60.1927 6.74491 60.1631 6.67329C60.1334 6.60166 60.0898 6.53656 60.0348 6.48172C59.9798 6.42687 59.9144 6.38336 59.8425 6.35367C59.7705 6.32398 59.6934 6.3087 59.6155 6.3087ZM51.7687 17.7933C49.6308 17.7933 48.3116 16.0441 48.3116 13.8297C48.3116 11.7035 49.5716 9.9558 51.7168 9.9558C53.8621 9.9558 55.2909 11.5578 55.2909 13.9754C55.2879 16.3607 53.7644 17.7889 51.7716 17.7889L51.7687 17.7933ZM86.5287 6.3087H82.6793C82.5222 6.3087 82.3716 6.37075 82.2605 6.4812C82.1495 6.59165 82.0871 6.74145 82.0871 6.89765V8.3185C81.1499 6.91974 79.4517 5.98771 77.4589 5.98771C73.007 5.98771 70.1643 9.45372 70.1643 13.8238C70.1643 18.2822 73.1254 21.7202 77.4885 21.7202C79.6264 21.7202 81.1218 20.8161 82.0871 19.3305V20.8029C82.0871 20.9591 82.1495 21.1089 82.2605 21.2193C82.3716 21.3298 82.5222 21.3918 82.6793 21.3918H86.5287C86.6858 21.3918 86.8364 21.3298 86.9475 21.2193C87.0585 21.1089 87.1209 20.9591 87.1209 20.8029V6.89912C87.1213 6.74318 87.0595 6.59344 86.949 6.48276C86.8386 6.37207 86.6885 6.30948 86.5317 6.3087H86.5287ZM78.6819 17.7933C76.544 17.7933 75.2248 16.0441 75.2248 13.8297C75.2248 11.7035 76.4847 9.9558 78.63 9.9558C80.7753 9.9558 82.2026 11.5578 82.2026 13.9754C82.2026 16.3607 80.685 17.7889 78.6878 17.7889L78.6819 17.7933ZM69.0924 17.7668H68.2959C67.6652 17.7462 67.3868 17.2691 67.3868 16.6242V16.3298V1.2216C67.3868 1.06539 67.3245 0.915591 67.2134 0.805141C67.1023 0.69469 66.9517 0.63264 66.7946 0.63264H63.0518C62.8948 0.63264 62.7441 0.69469 62.6331 0.805141C62.522 0.915591 62.4596 1.06539 62.4596 1.2216V16.3577C62.4596 20.691 65.2593 21.6966 67.8843 21.6966C68.2456 21.6966 68.592 21.6731 69.1457 21.6274C69.2947 21.6159 69.4338 21.5488 69.5351 21.4396C69.6364 21.3304 69.6925 21.1871 69.692 21.0385V18.3528C69.6922 18.2752 69.677 18.1984 69.6472 18.1267C69.6175 18.0549 69.5738 17.9898 69.5186 17.9349C69.4634 17.88 69.3979 17.8366 69.3258 17.8069C69.2537 17.7773 69.1764 17.7622 69.0983 17.7624L69.0924 17.7668ZM98.9178 5.98771C96.9857 5.98771 95.4904 6.68563 94.4066 8.28906V6.89765C94.4066 6.74145 94.3442 6.59165 94.2332 6.4812C94.1221 6.37075 93.9715 6.3087 93.8144 6.3087H89.965C89.808 6.3087 89.6573 6.37075 89.5463 6.4812C89.4352 6.59165 89.3728 6.74145 89.3728 6.89765V20.8088C89.3728 20.965 89.4352 21.1148 89.5463 21.2252C89.6573 21.3357 89.808 21.3977 89.965 21.3977H93.8144C93.9715 21.3977 94.1221 21.3357 94.2332 21.2252C94.3442 21.1148 94.4066 20.965 94.4066 20.8088V13.2436C94.4066 11.5239 95.021 10.0044 96.8377 10.0044C98.6839 10.0044 99.2406 11.7816 99.2406 13.2436V20.8102C99.2406 20.9664 99.303 21.1163 99.414 21.2267C99.5251 21.3372 99.6757 21.3992 99.8328 21.3992H103.682C103.839 21.3992 103.99 21.3372 104.101 21.2267C104.212 21.1163 104.274 20.9664 104.274 20.8102V12.9521C104.286 9.65543 103.349 5.98919 98.9237 5.98919L98.9178 5.98771ZM27.1977 15.5936C25.9141 15.0193 24.1892 15.9985 22.7309 16.2355C21.0379 16.5439 19.3027 16.5439 17.6097 16.2355C16.1529 15.9985 14.4281 15.0208 13.1444 15.5936C12.493 15.8881 12.2931 16.6007 12.5522 17.4532C12.7448 18.0437 13.081 18.5777 13.5309 19.008C14.4576 19.8816 15.5456 20.5686 16.7347 21.0311C17.8209 21.4868 18.9878 21.7216 20.1666 21.7216C21.3455 21.7216 22.5124 21.4868 23.5985 21.0311C24.7869 20.5679 25.8743 19.881 26.8009 19.008C27.252 18.58 27.5902 18.048 27.7855 17.4591C28.049 16.6007 27.8491 15.8851 27.1977 15.5936ZM39.6875 4.7406C39.6875 4.71999 39.6875 4.6979 39.6875 4.67729C39.6875 4.61398 39.6786 4.55066 39.6727 4.48735V4.47263C39.6727 4.40195 39.6564 4.32539 39.6475 4.26208V4.23852C39.6386 4.17521 39.6283 4.11336 39.6164 4.05005V4.02797C39.6031 3.96465 39.5898 3.90134 39.575 3.83803C39.5752 3.8346 39.5752 3.83115 39.575 3.82772C39.1634 2.10797 37.8146 0.712149 36.0217 0.383806C33.601 -0.0579102 31.284 1.61914 30.8546 4.13103C30.8457 4.18895 30.8383 4.24637 30.8324 4.3033C30.6844 5.67262 31.5875 6.94329 32.9052 7.18624C33.3825 7.27486 33.8756 7.21896 34.3206 7.02575C34.4994 6.94834 34.6973 6.92549 34.8892 6.96009C35.081 6.99469 35.2583 7.08519 35.3984 7.2201C35.7515 7.56127 36.1981 7.79123 36.682 7.88121C38.0633 8.13446 39.381 7.17888 39.6253 5.74477C39.6615 5.52704 39.6833 5.30718 39.6905 5.08661C39.6905 5.06011 39.6905 5.03213 39.6905 5.00563C39.6905 4.97913 39.6905 4.9703 39.6905 4.9541C39.6905 4.9379 39.6905 4.91287 39.6905 4.89373C39.6905 4.8422 39.689 4.79655 39.6875 4.7406ZM20.1711 0.980124C15.2853 0.980124 12.2458 2.69398 12.2458 5.45176C12.2458 8.66746 15.3549 13.0566 20.1711 13.0566C24.9088 13.0566 28.0964 8.61887 28.0964 5.45176C28.0964 2.65128 25.1338 0.980124 20.1711 0.980124ZM9.49493 4.13103C9.06557 1.61914 6.74853 -0.0623273 4.32785 0.383806C2.54233 0.712149 1.19356 2.10797 0.781971 3.82772V3.83803C0.767165 3.90134 0.753841 3.96465 0.740516 4.02797V4.05005C0.728672 4.11336 0.718309 4.17521 0.709426 4.23852C0.708614 4.24635 0.708614 4.25424 0.709426 4.26208C0.699062 4.33128 0.690178 4.40195 0.682775 4.47263V4.48735C0.682775 4.55214 0.67241 4.61545 0.667969 4.67876C0.667969 4.69937 0.667969 4.71999 0.667969 4.7406C0.667969 4.79213 0.667969 4.8422 0.667969 4.88784C0.667969 4.90698 0.667969 4.9276 0.667969 4.94821C0.667969 4.96882 0.667969 4.98207 0.667969 4.99974C0.667969 5.01741 0.667969 5.05422 0.667969 5.08072C0.675141 5.30129 0.696903 5.52115 0.733113 5.73888C0.978882 7.17299 2.29656 8.12857 3.67642 7.87532C4.16038 7.78534 4.60689 7.55538 4.96004 7.21421C5.10015 7.0793 5.27738 6.9888 5.46927 6.9542C5.66116 6.9196 5.85906 6.94245 6.03787 7.01986C6.48288 7.21307 6.97595 7.26898 7.45327 7.18035C8.78575 6.93741 9.67407 5.66673 9.53342 4.29741C9.51664 4.24441 9.50381 4.18895 9.49493 4.13103Z" fill="#A0FFE8"/>
</g>
<defs>
<clipPath id="clip0_1852_230">
<rect width="103.638" height="21.4969" fill="white" transform="translate(0.691406 0.122131)"/>
</clipPath>
</defs>
</svg>
