<svg width="85" height="27" viewBox="0 0 85 27" fill="none" xmlns="http://www.w3.org/2000/svg">
<g clip-path="url(#clip0_1852_294)">
<path d="M52.6092 20.6021C47.771 24.1815 40.7583 26.0913 34.7206 26.0913C26.2546 26.0913 18.6331 22.9484 12.8672 17.7211C12.4141 17.3101 12.82 16.7499 13.3637 17.07C19.5863 20.704 27.2803 22.8902 35.2279 22.8902C40.588 22.8902 46.4844 21.7771 51.9061 19.4672C52.7252 19.118 53.4101 20.0055 52.6092 20.6021Z" fill="#A0FFE8"/>
<path d="M54.6265 18.2917C54.0104 17.4986 50.5385 17.917 48.9801 18.1025C48.5054 18.1607 48.4329 17.746 48.8605 17.4477C51.6257 15.4943 56.1631 16.0582 56.6923 16.7129C57.2214 17.3713 56.5545 21.9365 53.956 24.1155C53.5574 24.4501 53.1769 24.2719 53.3544 23.8281C53.9379 22.3658 55.2462 19.0883 54.6265 18.2917Z" fill="#A0FFE8"/>
<path d="M49.0836 3.65793V1.7591C49.0836 1.47172 49.301 1.27893 49.562 1.27893H58.0315C58.3033 1.27893 58.5208 1.47536 58.5208 1.7591V3.38511C58.5171 3.65793 58.2888 4.01442 57.8829 4.57825L53.4941 10.8677C55.125 10.8277 56.8464 11.0714 58.3251 11.9081C58.6585 12.0972 58.7491 12.3737 58.7745 12.6465V14.6726C58.7745 14.9491 58.47 15.2729 58.1511 15.1055C55.5454 13.7341 52.0843 13.585 49.2032 15.1201C48.9096 15.2801 48.6016 14.96 48.6016 14.6836V12.7593C48.6016 12.4501 48.6052 11.9226 48.9132 11.4534L53.9979 4.13446H49.5728C49.301 4.13446 49.0836 3.94167 49.0836 3.65793Z" fill="#A0FFE8"/>
<path d="M18.1854 15.5052H15.6087C15.3623 15.4871 15.1666 15.3015 15.1484 15.0651V1.79142C15.1484 1.52587 15.3695 1.31489 15.6449 1.31489H18.0477C18.2978 1.32579 18.4971 1.51859 18.5152 1.75868V3.49382H18.5624C19.1893 1.81688 20.3672 1.03479 21.9545 1.03479C23.5673 1.03479 24.5748 1.81688 25.2996 3.49382C25.9229 1.81688 27.34 1.03479 28.8585 1.03479C29.9384 1.03479 31.1199 1.48222 31.8411 2.4862C32.6565 3.60295 32.4898 5.22533 32.4898 6.64764L32.4862 15.0251C32.4862 15.2906 32.2651 15.5052 31.9897 15.5052H29.4166C29.1593 15.4871 28.9527 15.2797 28.9527 15.0251V7.98992C28.9527 7.42973 29.0034 6.03288 28.8802 5.50179C28.6881 4.61057 28.1119 4.35957 27.3653 4.35957C26.742 4.35957 26.0896 4.7779 25.8251 5.44722C25.5605 6.11655 25.5859 7.23693 25.5859 7.98992V15.0251C25.5859 15.2906 25.3648 15.5052 25.0894 15.5052H22.5163C22.2553 15.4871 22.0524 15.2797 22.0524 15.0251L22.0488 7.98992C22.0488 6.50941 22.2916 4.33047 20.4614 4.33047C18.6095 4.33047 18.6819 6.45484 18.6819 7.98992V15.0251C18.6819 15.2906 18.4609 15.5052 18.1854 15.5052Z" fill="#A0FFE8"/>
<path d="M65.8142 1.03479C69.6376 1.03479 71.707 4.33047 71.707 8.52101C71.707 12.5697 69.4202 15.7817 65.8142 15.7817C62.0596 15.7817 60.0156 12.486 60.0156 8.37914C60.0156 4.24681 62.085 1.03479 65.8142 1.03479ZM65.836 3.74482C63.9369 3.74482 63.8173 6.34208 63.8173 7.96082C63.8173 9.5832 63.792 13.0462 65.8142 13.0462C67.8111 13.0462 67.9053 10.2525 67.9053 8.55011C67.9053 7.42973 67.8582 6.09108 67.5212 5.02889C67.2312 4.10494 66.655 3.74482 65.836 3.74482Z" fill="#A0FFE8"/>
<path d="M76.6662 15.5052H74.1003C73.843 15.4871 73.6364 15.2797 73.6364 15.0251L73.6328 1.74776C73.6546 1.50404 73.8684 1.31489 74.1293 1.31489H76.5176C76.7423 1.32579 76.9271 1.47858 76.9779 1.68592V3.71572H77.025C77.7462 1.90054 78.7573 1.03479 80.5367 1.03479C81.6928 1.03479 82.8199 1.45312 83.5448 2.59897C84.2188 3.66115 84.2188 5.44722 84.2188 6.7313V15.0869C84.1899 15.3197 83.976 15.5052 83.7223 15.5052H81.1383C80.9028 15.4871 80.7071 15.3124 80.6817 15.0869V7.87715C80.6817 6.42574 80.8484 4.30137 79.069 4.30137C78.442 4.30137 77.8658 4.72334 77.5795 5.36356C77.2171 6.17475 77.1699 6.9823 77.1699 7.87715V15.0251C77.1663 15.2906 76.9416 15.5052 76.6662 15.5052Z" fill="#A0FFE8"/>
<path d="M42.3347 9.16523V8.60504C40.4719 8.60504 38.504 9.00518 38.504 11.2096C38.504 12.3263 39.0802 13.0829 40.0696 13.0829C40.7945 13.0829 41.4432 12.6355 41.8527 11.908C42.3601 11.0131 42.3347 10.1729 42.3347 9.16523ZM44.9332 15.4692C44.7629 15.622 44.5164 15.6329 44.3243 15.5311C43.4691 14.8181 43.3168 14.4871 42.8457 13.8068C41.4323 15.2546 40.432 15.6875 38.5982 15.6875C36.431 15.6875 34.7422 14.3452 34.7422 11.657C34.7422 9.5581 35.8765 8.12851 37.4893 7.43009C38.8882 6.81169 40.8416 6.70256 42.3347 6.5316V6.19694C42.3347 5.58218 42.3818 4.85465 42.023 4.32356C41.7077 3.84703 41.1061 3.6506 40.577 3.6506C39.5949 3.6506 38.7178 4.15623 38.504 5.20386C38.4605 5.43667 38.2902 5.66584 38.0583 5.67676L35.5576 5.40757C35.3474 5.36028 35.1155 5.18931 35.1735 4.86557C35.7497 1.82452 38.4859 0.907837 40.9358 0.907837C42.1897 0.907837 43.8278 1.2425 44.8172 2.19555C46.0712 3.3705 45.9516 4.93832 45.9516 6.64436V10.6748C45.9516 11.8862 46.4517 12.4173 46.9228 13.072C47.0895 13.3048 47.1258 13.5849 46.9156 13.7595C46.3901 14.1997 45.4551 15.0182 44.9404 15.4765L44.9332 15.4692Z" fill="#A0FFE8"/>
<path d="M8.55345 9.16523V8.60504C6.69066 8.60504 4.72277 9.00518 4.72277 11.2096C4.72277 12.3263 5.299 13.0829 6.28838 13.0829C7.0132 13.0829 7.66192 12.6355 8.07145 11.908C8.57882 11.0131 8.55345 10.1729 8.55345 9.16523ZM11.1519 15.4692C10.9816 15.622 10.7352 15.6329 10.5431 15.5311C9.6878 14.8181 9.53559 14.4871 9.06445 13.8068C7.65105 15.2546 6.6508 15.6875 4.81699 15.6875C2.64977 15.6875 0.960938 14.3452 0.960938 11.657C0.960938 9.5581 2.09528 8.12851 3.70801 7.43009C5.10692 6.81169 7.06032 6.70256 8.55345 6.5316V6.19694C8.55345 5.58218 8.60057 4.85465 8.24178 4.32356C7.92648 3.84703 7.32488 3.6506 6.79576 3.6506C5.81362 3.6506 4.93659 4.15623 4.72277 5.20386C4.67928 5.43667 4.50894 5.66584 4.277 5.67676L1.77636 5.40757C1.56616 5.36028 1.33422 5.18931 1.39221 4.86557C1.96844 1.82452 4.70464 0.907837 7.15455 0.907837C8.40849 0.907837 10.0466 1.2425 11.036 2.19555C12.2899 3.3705 12.1703 4.93832 12.1703 6.64436V10.6748C12.1703 11.8862 12.6704 12.4173 13.1416 13.072C13.3083 13.3048 13.3445 13.5849 13.1343 13.7595C12.6088 14.1997 11.6738 15.0182 11.1592 15.4765L11.1519 15.4692Z" fill="#A0FFE8"/>
</g>
<defs>
<clipPath id="clip0_1852_294">
<rect width="83.3563" height="25.2527" fill="white" transform="translate(0.910156 0.873657)"/>
</clipPath>
</defs>
</svg>
