<svg width="116" height="23" viewBox="0 0 116 23" fill="none" xmlns="http://www.w3.org/2000/svg">
<path d="M114.995 17.4506L112.811 15.2146L110.628 17.4506L112.811 19.6866L114.995 17.4506ZM114.108 1.33269C113.994 0.796977 112.811 1.56561 110.332 3.87149C111.333 5.01279 111.811 4.36062 112.629 4.05783C113.266 5.31558 113.517 10.9988 109.331 12.6758C109.445 6.946 109.513 0.843561 109.513 0.843561C109.513 0.657227 109.4 0.657227 109.286 0.657227C108.171 0.843561 106.101 2.89324 104.509 4.64012C105.396 6.08421 106.443 4.75658 107.33 4.4072C107.33 4.64012 107.148 8.87922 107.216 13.1649C102.917 13.5376 103.622 4.43049 103.85 3.26591C103.963 2.31094 101.075 4.4072 99.6643 5.73483C100.142 6.57334 100.733 6.387 101.552 6.1075C101.256 10.1603 104.031 13.887 107.261 13.7705C107.375 17.9397 107.785 22.0391 108.967 22.3419C109.149 22.4117 109.263 18.1261 109.331 13.3512C117.065 10.8823 114.108 1.33269 114.108 1.33269ZM19.6443 16.0764V4.1277H16.5963V16.1928C16.5963 18.7782 17.8246 20.1757 20.7816 20.1757H22.6467V17.8931H21.4185C20.122 17.8698 19.6443 17.4506 19.6443 16.0764ZM65.5 4.29074L61.019 16.4258L56.5381 4.29074H52.1709V20.1524H55.2416V10.696C55.2416 10.0904 55.2416 9.06556 55.1733 8.41339H55.2871L59.586 20.1757H62.4065L66.7737 8.41339H66.842C66.7737 9.06556 66.7737 10.1137 66.7737 10.696V20.1757H69.8444V4.29074H65.5ZM28.6744 20.3621C32.4957 20.3621 34.3836 18.9646 34.3836 15.2379V8.04072H31.3129V15.168C31.3129 17.3341 30.0164 18.1261 28.6062 18.1261C27.1959 18.1261 25.8994 17.3341 25.8994 15.168V8.04072H22.8287V15.2146C22.897 18.9646 24.8303 20.3621 28.6744 20.3621ZM39.0465 15.168V13.0019C39.0465 10.8357 40.707 10.0438 42.1172 10.0438C43.5275 10.0438 45.1879 10.8357 45.1879 13.0019V15.168C45.1879 17.3341 43.5275 18.1261 42.1172 18.1261C40.6842 18.1726 39.0465 17.3341 39.0465 15.168ZM48.0539 13.0484C48.0539 10.0904 46.3934 7.85438 42.5039 7.85438C41.3211 7.85438 40.0928 8.15718 39.092 8.6463V4.1277H36.0213V15.168C36.0213 18.918 38.2049 20.2922 42.0262 20.2922C45.8475 20.2922 48.0311 18.7316 48.0311 14.9817C48.0539 14.9817 48.0539 13.0484 48.0539 13.0484ZM93.4774 12.9786V15.1447C93.4774 17.3108 91.8169 18.1028 90.4067 18.1028C88.9965 18.1028 87.336 17.3108 87.336 15.1447V12.9786C87.336 10.8124 88.9965 10.0205 90.4067 10.0205C91.8397 10.0438 93.4774 10.8823 93.4774 12.9786ZM90.0655 7.85438C86.176 7.85438 84.5155 10.0904 84.5155 13.0484V14.9817C84.5155 18.7316 86.6991 20.2922 90.5204 20.2922C94.3417 20.2922 96.5253 18.8947 96.5253 15.168V4.1277H93.5229V8.6463C92.4766 8.15718 91.2483 7.85438 90.0655 7.85438ZM74.2116 13.0484C74.2116 10.8124 75.8721 9.97394 77.2823 9.97394C78.6926 9.97394 80.353 10.8124 80.353 13.0484H74.2116ZM81.1036 16.9615C79.8071 17.8698 78.8745 18.1726 77.3961 18.1726C75.6219 18.1726 74.1661 17.1478 74.1661 15.2146V14.9817H83.2418V13.9568C83.2418 10.2069 81.0581 7.85438 77.2368 7.85438C73.4155 7.85438 71.2092 10.2069 71.2092 13.9568V14.446C71.2092 18.0562 73.3246 20.3621 77.3961 20.3621C79.4659 20.3621 81.2174 19.9428 82.9915 18.4987L81.1036 16.9615ZM8.52156 20.3621C12.5248 20.3621 15.0041 18.2425 15.5273 15.4242H12.2746C11.7515 17.2876 10.3867 18.1959 8.45332 18.1959C5.45087 18.1959 4.33632 16.1463 4.33632 13.0019V11.4413C4.33632 7.94755 5.8148 6.31713 8.45332 6.31713C10.3412 6.31713 11.6832 7.15563 12.2746 9.08885H15.5045C14.9131 6.24725 12.5021 4.15099 8.49881 4.15099C3.92689 4.1277 1.26562 6.94601 1.26562 11.3714V13.5376C1.26562 17.7068 3.79042 20.3621 8.52156 20.3621Z" fill="#A0FFE8"/>
</svg>
