<svg width="99" height="30" viewBox="0 0 99 30" fill="none" xmlns="http://www.w3.org/2000/svg">
<path d="M7.65155 26.5492C2.9172 26.5492 2.19987 25.9845 2.44266 24.9003C2.61923 24.1323 6.49279 9.35981 6.58108 9.02099C6.96733 7.43983 8.58959 7.82383 8.65581 7.83512C8.69995 7.84642 8.73306 7.89159 8.72202 7.93677C8.57856 9.20169 6.30519 21.6815 6.28311 21.8396C6.09551 23.0707 6.28311 23.1949 7.77295 23.1949C15.1338 23.1949 17.8045 17.9884 18.5328 13.8322C19.7909 6.62667 12.8825 4.46952 3.24827 5.35045C3.15999 5.36174 2.51991 5.39562 2.24401 5.2601C1.87983 5.07939 1.57083 4.62764 1.49358 4.37917C1.46047 4.28882 1.46047 4.19846 1.49358 4.14199C1.51565 4.10811 1.53772 4.07423 1.57083 4.06294C4.68292 3.49824 9.00895 2.74154 11.801 3.04648C22.3733 4.18717 22.3733 10.9974 21.7553 14.4421C21.4132 16.4411 19.6254 26.5492 7.65155 26.5492ZM45.5485 22.0994C44.8642 24.4824 42.7785 26.1313 40.3506 26.1991C38.309 26.312 36.2674 25.1262 35.3735 23.2966C35.0203 22.6076 34.8217 21.8622 34.7444 20.9813C34.4354 21.1281 34.1154 21.2636 33.7953 21.3653C33.376 22.5737 32.6476 23.6918 31.6434 24.4598C29.4914 26.0975 26.5779 26.5718 23.9625 25.1036C20.74 22.8335 21.1373 18.2594 23.3886 15.5715C25.6289 12.8835 29.7452 12.4318 31.8089 13.7532C33.2104 14.6793 33.9609 16.2717 34.1595 17.9319C34.4575 17.7173 34.7223 17.4463 35.0313 17.0849C35.3183 16.7348 35.8811 15.8764 35.8811 15.8764C36.2122 15.3569 36.6205 14.8713 37.073 14.4534C38.022 13.6063 39.225 13.1885 40.4389 13.1885C41.4873 13.1885 42.5578 13.5047 43.4848 14.1484C43.7827 14.3517 43.86 14.4647 43.7607 14.6341C43.6282 14.8826 43.4848 15.1084 43.3082 15.323C42.9771 15.7296 42.635 15.5828 42.4033 15.4811C42.3701 15.4698 42.337 15.4473 42.3039 15.436C41.2666 15.0633 40.4168 15.1423 39.534 15.6844C37.6248 16.8703 37.3378 19.1743 37.691 20.9361C38.0552 22.7319 39.0263 23.3417 39.7878 23.5337C41.1783 23.8951 43.0433 23.1271 44.2242 21.7041C44.5773 21.2749 45.1181 21.5573 45.5043 21.8735C45.5264 21.8848 45.5374 21.8961 45.5485 21.9074C45.6036 21.9752 45.5485 22.0881 45.5485 22.0994ZM31.0364 16.0458C29.6128 14.2388 27.0304 14.8487 25.5737 16.5202C24.117 18.203 24.0949 20.9587 25.684 22.122C27.1739 23.2062 29.5466 22.6302 30.7164 20.8909C31.533 19.6712 32.2724 17.6157 31.0364 16.0458ZM66.6599 19.8406C66.4613 21.6025 65.5784 23.3869 64.1658 24.4711C62.0139 26.1088 59.1004 26.5831 56.4849 25.1149C56.1539 24.8777 55.8559 24.6179 55.6021 24.3356C55.1606 24.7422 54.642 25.1488 54.0681 25.4989C52.3134 26.5831 49.8635 26.3008 48.3516 24.8551C47.3914 23.9742 46.9279 22.5173 47.1045 21.0378C47.259 19.7277 48.4067 15.2101 49.4772 11.1668C48.4288 11.2007 47.5128 11.1668 47.0052 10.9184C46.1885 10.5118 46.3872 9.12263 46.4644 8.72734C46.4755 8.67087 46.5306 8.6257 46.5858 8.6257C46.9831 8.6257 48.484 8.6144 50.1504 8.60311C50.8456 6.0055 51.3974 4.05164 51.3974 4.05164C51.5961 3.36271 52.3355 2.99001 53.0087 2.99001C53.1411 2.99001 53.2625 3.00131 53.3839 3.03519C53.428 3.04648 53.4501 3.09166 53.439 3.14813C53.2625 4.26623 52.9204 6.29914 52.512 8.60311C53.417 8.60311 54.2336 8.61441 54.7854 8.6257C56.7277 8.67088 59.288 8.78381 59.8067 8.8064C59.8619 8.8064 59.9171 8.85158 59.9281 8.90805C59.9833 9.15652 60.0274 9.77768 59.3322 10.1843C58.7362 10.5231 54.4102 10.8393 52.4238 10.9748C52.3134 10.9861 52.2141 10.9861 52.1037 10.9974C51.276 15.6731 50.3932 20.5182 50.349 20.7328C50.1283 21.8622 50.8236 22.5512 51.4416 22.6867C52.5783 22.9352 53.5053 22.4382 54.2778 21.7154C53.8474 19.6034 54.5206 17.2317 55.9 15.5715C58.1403 12.8835 62.2566 12.4318 64.3203 13.7532C66.2626 15.052 66.9469 17.6044 66.6599 19.8406ZM63.5699 16.0458C62.1463 14.2388 59.5639 14.8487 58.1072 16.5202C56.6505 18.203 56.6284 20.9587 58.2175 22.122C59.7074 23.2062 62.0801 22.6302 63.2499 20.8909C64.0665 19.6712 64.8059 17.6157 63.5699 16.0458ZM79.5939 10.3876C80.2339 10.8167 81.0396 10.6134 81.5582 10.2181C81.9114 9.94709 82.1431 9.50663 82.1983 9.03228C82.2645 8.53535 82.1431 7.83512 81.6024 7.47371C81.3927 7.33819 81.1499 7.28172 80.8961 7.28172C80.4988 7.28172 80.0905 7.42854 79.7704 7.62053C79.6711 7.6883 79.5939 7.75606 79.5166 7.84641C79.4725 7.90288 79.4283 7.97065 79.3952 8.03841C78.9428 8.85158 78.8434 9.85674 79.5939 10.3876ZM94.426 13.7757C92.9582 12.8271 90.431 12.7932 88.2901 13.8322C88.7536 11.2233 89.7578 4.06294 89.9013 3.15942C89.9123 3.12554 89.9013 3.10295 89.8903 3.08036C89.8792 3.05778 89.8572 3.04648 89.8351 3.04648C89.7137 3.02389 89.5923 3.0013 89.4599 3.0013C88.7867 3.0013 88.0473 3.374 87.8486 4.06294C87.8486 4.06294 83.9199 20.2924 83.7875 21.0491C82.8825 22.4834 81.79 23.0368 80.5981 22.6641C79.6049 22.3479 79.6601 21.5686 79.6932 21.1846C79.7484 20.5747 80.7747 14.555 80.9623 13.211C80.9733 13.1207 80.9182 13.0416 80.8299 13.0191C80.6202 12.9852 80.3995 12.9626 80.1788 12.9626C79.4504 12.9626 78.7 13.2336 78.2585 14.363C78.2475 14.4082 76.9563 19.0274 76.7135 20.0213C76.6804 20.1455 76.6584 20.2698 76.6252 20.394C75.6762 21.8622 74.2084 23.1497 72.0895 22.6867C71.4715 22.5512 70.7873 22.0881 70.997 20.7328C71.0522 20.3714 72.9945 8.87416 73.5573 5.20363C73.5683 5.14716 73.5463 5.10198 73.5021 5.09069C73.3807 5.05681 73.2483 5.04551 73.1269 5.04551C72.4537 5.04551 71.7254 5.41821 71.5157 6.10714C71.5157 6.10714 68.4146 17.7512 67.7525 21.0378C67.4545 22.4834 67.6642 23.8951 68.9223 25.0358C70.0921 26.1088 72.3434 26.4476 74.2084 25.6457C75.2899 25.1827 76.1949 24.426 76.8239 23.7709C77.6405 25.4424 79.5939 26.5266 81.3927 26.0862C82.7832 25.7473 83.8427 24.7196 84.5379 23.8613C84.8138 24.2678 85.1338 24.6292 85.4759 24.9116C87.0761 26.2104 89.3385 26.4476 91.3911 25.8264C92.4285 25.5892 93.4217 25.1262 94.2825 24.4711C95.6951 23.3756 96.589 21.6025 96.7766 19.8406C97.0635 17.6044 96.3683 15.052 94.426 13.7757ZM93.4107 21.1507C92.2519 22.89 89.5923 23.545 88.1025 22.4608C86.5023 21.2975 86.8113 18.4514 88.268 16.7799C89.7247 15.0971 92.3071 14.4986 93.7307 16.3056C94.9667 17.8642 94.2273 19.9197 93.4107 21.1507Z" fill="#A0FFE8"/>
</svg>
