<svg width="61" height="33" viewBox="0 0 61 33" fill="none" xmlns="http://www.w3.org/2000/svg">
<g clip-path="url(#clip0_1852_303)">
<path fill-rule="evenodd" clip-rule="evenodd" d="M59.763 31.0018C59.3501 31.0018 59.0105 31.3643 59.0105 31.8074C59.0105 32.2505 59.351 32.6113 59.763 32.6113C60.175 32.6113 60.5095 32.253 60.5095 31.8074C60.5095 31.3617 60.1758 31.0018 59.763 31.0018ZM60.7215 31.8074C60.7176 31.9956 60.6581 32.1784 60.5505 32.333C60.4429 32.4876 60.2919 32.6071 60.1164 32.6764C59.941 32.7458 59.7489 32.7619 59.5643 32.7229C59.3797 32.6838 59.2107 32.5913 59.0786 32.4569C58.9465 32.3225 58.8571 32.1521 58.8217 31.9673C58.7863 31.7824 58.8064 31.5912 58.8795 31.4177C58.9526 31.2442 59.0754 31.0961 59.2326 30.9919C59.3897 30.8877 59.5742 30.8321 59.763 30.832C59.8902 30.8331 60.0159 30.8593 60.133 30.9089C60.25 30.9586 60.3561 31.0308 60.4452 31.1214C60.5342 31.212 60.6045 31.3192 60.6519 31.4369C60.6993 31.5546 60.7229 31.6805 60.7215 31.8074Z" fill="#A0FFE8"/>
<path fill-rule="evenodd" clip-rule="evenodd" d="M59.8605 31.7633L59.5694 31.7693V31.4518H59.7822L59.8673 31.4561L59.9439 31.4747L59.9737 31.4943L59.9993 31.5172L60.0146 31.5554L60.0205 31.6275L60.0078 31.6725L59.9907 31.7056L59.9465 31.7404L59.9295 31.7489L59.9099 31.7549L59.8605 31.7633ZM59.9116 31.9034L59.9712 31.8949C60.3048 31.833 60.281 31.2523 59.8009 31.3007H59.3906V32.3796H59.5668V31.9178H59.7371L60.018 32.3805H60.2197L59.9116 31.9034Z" fill="#A0FFE8"/>
<path fill-rule="evenodd" clip-rule="evenodd" d="M12.9453 18.9082L18.3855 32.6345H20.2719L25.7376 18.9082H23.3431L19.4547 28.9589L15.8174 18.9082H12.9453Z" fill="#A0FFE8"/>
<path fill-rule="evenodd" clip-rule="evenodd" d="M10.2131 24.3865H3.4696C3.74199 22.1845 4.9916 20.9265 6.99029 20.9265C8.83577 20.9248 10.0726 22.3169 10.2131 24.3865ZM3.38192 26.3389L12.9302 26.3304L12.9345 26.3024C12.9345 21.4375 10.322 18.8917 6.99625 18.8917C3.28488 18.8951 0.716708 21.8008 0.722667 25.7888C0.722667 29.8524 2.69582 33 7.18182 33C9.46057 33 10.9996 32.3022 12.6178 31.2479V28.7217C11.1298 29.8804 9.25032 30.9423 7.63468 30.9423C5.06395 30.9423 3.38192 29.2777 3.38192 26.3423V26.3389Z" fill="#A0FFE8"/>
<path fill-rule="evenodd" clip-rule="evenodd" d="M29.6434 32.6495L29.6459 18.9189H27.2454L27.2344 32.6495H29.6434Z" fill="#A0FFE8"/>
<path fill-rule="evenodd" clip-rule="evenodd" d="M29.6434 17.6098L29.6459 15.2236H27.2454L27.2344 17.6098H29.6434Z" fill="#A0FFE8"/>
<path fill-rule="evenodd" clip-rule="evenodd" d="M57.3853 32.6491V24.4073C57.3853 22.7096 56.9256 21.2453 56.048 20.2054C55.1704 19.1655 53.8705 18.556 52.2506 18.556C51.5798 18.5477 50.9144 18.6774 50.2961 18.9373C49.6779 19.1971 49.12 19.5815 48.6576 20.0662V18.8947H46.2656V32.6533H48.7342V24.2775C48.7402 22.3573 50.086 20.9363 51.9502 20.9303C53.908 20.9431 54.9295 22.3259 54.9414 24.3258V32.6448H54.9371L57.3853 32.6491Z" fill="#A0FFE8"/>
<path fill-rule="evenodd" clip-rule="evenodd" d="M34.3673 29.3546C34.2778 29.1808 34.2201 28.9925 34.197 28.7985V28.7841L34.1911 28.7586L34.1783 28.5464C34.197 27.5049 34.695 26.5779 37.4862 26.3767C38.8065 26.2808 40.1438 26.1416 41.0725 25.5754L41.2001 25.4905L41.2393 25.4667V27.2205C41.2334 27.4922 41.1983 27.7626 41.1346 28.0269C41.1048 28.1373 41.0665 28.2451 41.0282 28.3486L41.018 28.3851C40.8558 28.7886 40.6034 29.1498 40.28 29.4411L40.2161 29.5048L40.1548 29.5515C39.3657 30.1924 38.2327 30.4853 37.0419 30.4853C35.7914 30.4844 34.7648 30.1245 34.3673 29.3546ZM43.9743 32.3256C43.7956 31.8545 43.6236 30.9216 43.6108 30.2705V22.7902C43.6108 21.5042 43.1537 20.4134 42.2489 19.6621C41.344 18.9108 40.0042 18.4847 38.2523 18.4847H38.2396L38.2336 18.4805C35.4313 18.4847 33.4224 19.7419 32.7525 21.7843L32.7287 21.8692L32.6904 21.9753H35.3828L35.4279 21.9159C36.04 21.0551 37.2283 20.803 38.2149 20.803H38.2234C40.3855 20.8174 41.2401 21.5806 41.2427 22.5398V22.5457C41.2359 23.0152 41.0231 23.3691 40.4051 23.6578C39.7871 23.9464 38.7571 24.1365 37.19 24.2112C33.8395 24.381 31.7812 25.6891 31.7812 28.5269V28.5439V28.5566C31.7898 31.5472 34.2796 32.8366 36.9695 32.8366H36.9831C38.8371 32.8366 40.2868 32.2603 41.2563 31.2441L41.2972 31.2017L41.3031 31.2569C41.3437 31.6639 41.4462 32.0623 41.607 32.4385L41.6241 32.4725L41.6453 32.5209H44.0586L43.9743 32.3256Z" fill="#A0FFE8"/>
<path fill-rule="evenodd" clip-rule="evenodd" d="M35.024 10.734L33.7038 9.20095L33.6399 7.60507L31.3765 4.29106L30.8726 2.69518L28.9845 0.853968V0L27.0454 1.0925L25.7771 3.18668L24.5173 3.12386L23.1979 4.78256L21.2502 6.89201L20.5156 7.92085L23.8874 7.54225L27.637 8.80283L28.9233 11.2238L31.8379 13.1194L35.688 13.0913L38.3592 13.8061L35.0853 11.7179L35.024 10.734Z" fill="#A0FFE8"/>
<path fill-rule="evenodd" clip-rule="evenodd" d="M20.7069 11.7009L19.1517 8.72478L19.5875 7.80629L19.1236 6.45234L19.493 5.26561L19.3892 2.79199L16.2839 5.01604L14.9534 7.1586L13.4612 7.55673L11.236 9.33342L8.74619 12.4912L6.73047 14.0311L9.80087 14.1678L13.239 12.5838L15.4003 13.8579L19.241 13.7841L20.4906 14.4054L21.5564 13.9139L20.8924 13.5846L20.7069 11.7009Z" fill="#A0FFE8"/>
<path fill-rule="evenodd" clip-rule="evenodd" d="M46.7919 12.3588L46.0258 8.68823L44.1718 5.94212L43.4057 3.94727L41.556 5.0126L39.9761 6.61103L37.2956 6.99388L35.2969 8.00149L36.0826 9.09909L39.3224 10.9276L41.4938 12.9784L43.4074 13.1686L46.4719 14.8494H50.6829C50.6829 14.8494 48.5684 13.1211 48.4493 13.0413C48.3301 12.9615 46.7919 12.3588 46.7919 12.3588Z" fill="#A0FFE8"/>
</g>
<defs>
<clipPath id="clip0_1852_303">
<rect width="60" height="33" fill="white" transform="translate(0.722656)"/>
</clipPath>
</defs>
</svg>
