<svg width="91" height="32" viewBox="0 0 91 32" fill="none" xmlns="http://www.w3.org/2000/svg">
<g clip-path="url(#clip0_1852_263)">
<path d="M39.1639 16.2625C39.1639 20.5028 35.8561 23.6273 31.7968 23.6273C27.7374 23.6273 24.4297 20.5028 24.4297 16.2625C24.4297 11.9924 27.7374 8.89777 31.7968 8.89777C35.8561 8.89777 39.1639 11.9924 39.1639 16.2625ZM35.9389 16.2625C35.9389 13.6128 34.0218 11.7998 31.7968 11.7998C29.5717 11.7998 27.6546 13.6128 27.6546 16.2625C27.6546 18.8857 29.5717 20.7252 31.7968 20.7252C34.0218 20.7252 35.9389 18.8824 35.9389 16.2625Z" fill="#A0FFE8"/>
<path d="M55.0545 16.2625C55.0545 20.5028 51.7467 23.6273 47.6874 23.6273C43.6281 23.6273 40.3203 20.5028 40.3203 16.2625C40.3203 11.9957 43.6281 8.89777 47.6874 8.89777C51.7467 8.89777 55.0545 11.9924 55.0545 16.2625ZM51.8295 16.2625C51.8295 13.6128 49.9124 11.7998 47.6874 11.7998C45.4624 11.7998 43.5453 13.6128 43.5453 16.2625C43.5453 18.8857 45.4624 20.7252 47.6874 20.7252C49.9124 20.7252 51.8295 18.8824 51.8295 16.2625Z" fill="#A0FFE8"/>
<path d="M70.2856 9.34271V22.5648C70.2856 28.0037 67.0871 30.225 63.3059 30.225C59.7465 30.225 57.6043 27.8376 56.7964 25.8852L59.6042 24.7131C60.1041 25.9118 61.3292 27.3263 63.3026 27.3263C65.723 27.3263 67.2229 25.8288 67.2229 23.0097V21.9505H67.1103C66.3885 22.8437 64.9979 23.624 63.243 23.624C59.5711 23.624 56.207 20.4164 56.207 16.2891C56.207 12.1319 59.5711 8.89777 63.243 8.89777C64.9946 8.89777 66.3852 9.67807 67.1103 10.5447H67.2229V9.34603H70.2856V9.34271ZM67.4514 16.2891C67.4514 13.6958 65.7263 11.7998 63.5311 11.7998C61.3061 11.7998 59.4419 13.6958 59.4419 16.2891C59.4419 18.8558 61.3061 20.7252 63.5311 20.7252C65.7263 20.7252 67.4514 18.8558 67.4514 16.2891Z" fill="#A0FFE8"/>
<path d="M75.333 1.59308V23.176H72.1875V1.59308H75.333Z" fill="#A0FFE8"/>
<path d="M87.5947 18.6859L90.0978 20.3594C89.2899 21.5581 87.3431 23.6234 83.979 23.6234C79.8071 23.6234 76.6914 20.3893 76.6914 16.2586C76.6914 11.8789 79.8336 8.89386 83.6181 8.89386C87.4291 8.89386 89.2933 11.9354 89.9025 13.579L90.2369 14.4158L80.4197 18.4933C81.1713 19.9709 82.3401 20.7246 83.979 20.7246C85.6213 20.7246 86.7603 19.9144 87.5947 18.6859ZM79.8899 16.0362L86.4524 13.3034C86.0915 12.3837 85.0055 11.7428 83.7274 11.7428C82.0884 11.7428 79.8071 13.1938 79.8899 16.0362Z" fill="#A0FFE8"/>
<path d="M12.5225 14.3457V11.2212H23.0219C23.1245 11.7657 23.1775 12.4099 23.1775 13.1072C23.1775 15.4514 22.5385 18.3502 20.479 20.4155C18.4758 22.5074 15.9164 23.6231 12.5258 23.6231C6.24147 23.6231 0.957031 18.4896 0.957031 12.1874C0.957031 5.88519 6.24147 0.75177 12.5258 0.75177C16.0024 0.75177 18.4791 2.1198 20.3399 3.90288L18.1414 6.10766C16.807 4.85253 14.9992 3.87632 12.5225 3.87632C7.93341 3.87632 4.34423 7.58527 4.34423 12.1874C4.34423 16.7896 7.93341 20.4985 12.5225 20.4985C15.4992 20.4985 17.1944 19.2998 18.2804 18.2107C19.1612 17.3275 19.7406 16.0657 19.9691 14.3424L12.5225 14.3457Z" fill="#A0FFE8"/>
</g>
<defs>
<clipPath id="clip0_1852_263">
<rect width="90.0605" height="30.5482" fill="white" transform="translate(0.835938 0.596497)"/>
</clipPath>
</defs>
</svg>
