<svg width="82" height="35" viewBox="0 0 82 35" fill="none" xmlns="http://www.w3.org/2000/svg">
<path d="M63.2031 1.66199V17.5469L63.0007 17.7143L62.7984 17.8816L62.6044 18.0574L62.4189 18.2331L62.2418 18.4089L62.0647 18.593L61.8961 18.7771L61.7274 18.9613V1.66199H43.9934V16.1241H42.5261V1.66199H24.7921V16.1492H23.3248V1.66199H5.59087V18.1746L1.0625 33.1472H5.04274L7.04129 26.5187H7.61472L10.9203 33.1472H15.727L12.5225 26.5187H19.7915L17.7761 33.1472H22.119L24.1091 26.5355H25.0704V26.5187H26.4365H26.5461H34.7512L32.8285 33.1304H37.2135L39.0771 26.5187H41.0504L41.101 33.1304H44.7776L49.0024 26.5187H51.7683L50.3348 33.1304H54.6523L56.0606 26.5187H58.5567L58.5398 26.8953L58.5487 27.2803L58.5656 27.6485L58.5993 28.0168L58.6246 28.1925L58.6498 28.3683L58.6835 28.5441L58.7172 28.7198L58.7594 28.8956L58.8015 29.063L58.8521 29.2303L58.9026 29.3977L58.9617 29.5651L59.0208 29.7241L59.0882 29.8831L59.1557 30.0338L59.2316 30.1928L59.3076 30.3434L59.3919 30.4857L59.4763 30.6364L59.5691 30.7787L59.6703 30.9126L59.7715 31.0548L59.8811 31.1804L59.9907 31.3143L60.1003 31.4398L60.2268 31.5654L60.3533 31.6825L60.5135 31.8164L60.6738 31.9504L60.8424 32.0759L61.0195 32.1931L61.1966 32.3102L61.3737 32.419L61.5592 32.5111L61.7531 32.6115L61.9387 32.6952L62.1326 32.7788L62.3266 32.8542L62.529 32.9295L62.7313 32.9965L62.9337 33.0551L63.1361 33.1137L63.3385 33.1639L63.7433 33.2559L64.1565 33.3229L64.5612 33.3815L64.966 33.4317L65.3623 33.4652L65.7502 33.4819L66.1297 33.4987H66.4923L66.9814 33.4908L67.4705 33.4828L67.9681 33.4577L68.4656 33.4326L68.9631 33.3907L69.4606 33.3488L69.9582 33.2986L70.4557 33.24L70.9617 33.173L71.4676 33.0977L71.9736 33.014L72.4795 32.9303L72.9855 32.8383L73.4915 32.7379L73.9974 32.6374L74.5118 32.5203L76.0129 26.5195H80.9376V1.66276L63.2031 1.66199ZM7.23524 25.8994L7.26052 25.8074L7.3196 25.8994H7.23524ZM22.684 16.9945L22.431 17.8398L20.0698 25.6232L19.977 25.8994H12.219L11.6202 24.6273L19.977 16.1492H14.6054L8.07006 23.1375L10.1867 16.1492H6.2233V2.28969H22.6839L22.684 16.9945ZM27.2629 23.5727L27.1364 23.5807L27.0184 23.5886L26.8919 23.5966H26.757H26.5799H26.4281L26.2847 23.6045H26.1498L25.0957 23.5966L25.5848 21.8055L25.8125 20.9184L26.3691 18.8345H26.5461H26.7317L26.9087 18.8265H27.0774H27.8954L28.3929 18.8345L28.8483 18.8512L29.0507 18.8592L29.2446 18.876L29.4301 18.9011L29.5988 18.9262L29.7506 18.9513L29.8939 18.9932L30.0289 19.0351L30.1469 19.0853L30.2481 19.1355L30.3409 19.2025L30.4252 19.2695L30.4927 19.3532L30.5348 19.4202L30.5685 19.4872L30.6022 19.5626L30.6275 19.6463L30.6443 19.7383L30.6532 19.8303V19.9307V20.0395L30.6443 20.1567L30.6364 20.2739L30.6111 20.4078L30.5858 20.5417L30.5099 20.8262L30.4171 21.1443L30.3243 21.4121L30.2231 21.6715L30.1135 21.9142L29.9955 22.1402L29.9364 22.2406L29.8773 22.3411L29.8098 22.4415L29.7339 22.5335L29.6579 22.6255L29.582 22.7092L29.4976 22.7929L29.4133 22.8682L29.3205 22.9353L29.2277 23.0106L29.1265 23.0692L29.0169 23.1362L28.9073 23.1947L28.7892 23.245L28.6711 23.2952L28.5446 23.3371L28.4097 23.3873L28.2664 23.4208L28.1146 23.4542L27.9628 23.4877L27.7941 23.5128L27.6255 23.5379L27.4484 23.5547L27.2629 23.5715L27.2629 23.5727ZM39.2542 25.8994L40.9829 19.7898L41.0505 25.8994H39.2542ZM41.8852 16.1241H37.7701L34.9367 25.8994H30.5685L30.7709 25.8157L30.9733 25.732L31.1673 25.6484L31.3612 25.5563L31.5467 25.4643L31.7238 25.3555L31.9009 25.2551L32.0696 25.1463L32.2382 25.0291L32.3984 24.9119L32.5502 24.7948L32.702 24.6609L32.8454 24.5353L32.9803 24.3931L33.1152 24.2591L33.2417 24.1085L33.3682 23.9662L33.4863 23.8072L33.5959 23.6566L33.7055 23.4892L33.8067 23.3218L33.8995 23.1544L33.9923 22.9786L34.0766 22.7945L34.161 22.6104L34.2369 22.4263L34.3043 22.2338L34.3718 22.0329L34.4224 21.8321L34.4815 21.6312L34.5236 21.4136L34.5657 21.2044L34.6248 20.8696L34.6754 20.5516L34.7091 20.2503L34.7344 19.9657L34.7433 19.6812L34.7344 19.4217L34.7264 19.1623L34.6927 18.9195L34.659 18.6936L34.5999 18.4676L34.5409 18.2584L34.4565 18.0575L34.3637 17.865L34.2625 17.6725L34.1445 17.4968L34.0095 17.3294L33.8999 17.2122L33.7903 17.0951L33.6722 16.9946L33.5457 16.9026L33.4108 16.8106L33.2759 16.7269L33.1325 16.6515L32.9892 16.5845L32.8374 16.5175L32.6856 16.4673L32.5254 16.4171L32.3652 16.3669L32.1965 16.325L32.0279 16.2915L31.8592 16.2581L31.6821 16.2329L31.3195 16.1827L30.9569 16.1576L30.5859 16.1325L30.2064 16.1245H29.4474H28.6969H28.4608H28.0392H27.5164H26.9345H26.3695H25.8888H25.5515H25.425V2.29014H41.8857L41.8852 16.1241ZM51.8864 25.8994H49.4156L53.1598 20.0409L51.8864 25.8994ZM61.0865 16.4003L61.0776 19.7898L60.8668 20.0828L60.6728 20.3841L60.4789 20.6853L60.3018 20.9866L60.1331 21.2879L59.9645 21.5976L59.8211 21.8989L59.6778 22.2002L59.5428 22.4931L59.4248 22.7944L59.3067 23.0873L59.2055 23.3719L59.1127 23.6564L59.0284 23.9326L58.9525 24.2004L58.8849 24.4683L58.8428 24.644L58.8007 24.8281L58.7586 25.0039L58.7249 25.188L58.6911 25.3638L58.6659 25.5395L58.6406 25.7153L58.6237 25.8994H56.2035L58.2696 16.1492L51.3041 16.1413L45.0724 25.8998H44.617V2.29012H61.0861L61.0865 16.4003ZM70.5817 29.8915L70.236 29.9501L69.8818 30.0003L69.5276 30.0506L69.1819 30.0925L68.8362 30.1259L68.4904 30.151L68.1531 30.1678H67.8158H67.5966L67.3773 30.1599L67.1665 30.1431L66.9557 30.118L66.7533 30.0845L66.5593 30.0511L66.3654 30.0092L66.1799 29.9589L66.0028 29.9004L65.8257 29.8418L65.657 29.7665L65.4968 29.6911L65.3366 29.5991L65.1848 29.5071L65.0414 29.4067L64.9065 29.3062L64.7716 29.1891L64.6535 29.0635L64.5355 28.938L64.4259 28.7957L64.3247 28.6534L64.2319 28.4944L64.1475 28.3354L64.0632 28.168L63.9957 27.9923L63.9366 27.7998L63.886 27.6073L63.8355 27.4064L63.8018 27.1972L63.7765 26.9796L63.7596 26.7536L63.7507 26.5193H71.4245L70.5817 29.8915ZM80.3131 25.8994H76.1642L76.8472 23.171H68.5326L67.8495 25.8994H63.8271V25.3387L63.8777 25.1043L63.9198 24.87L63.9704 24.6189L64.0209 24.3678L64.0969 24.0916L64.1728 23.8155L64.2572 23.5393L64.3499 23.2714L64.4511 23.0036L64.5608 22.7358L64.6788 22.4764L64.7969 22.2169L64.9318 21.9575L65.0667 21.7148L65.2101 21.4637L65.3703 21.2293L65.5305 20.995L65.6907 20.769L65.8678 20.5514L66.0534 20.3422L66.2473 20.1413L66.4413 19.9572L66.6521 19.7731L66.8629 19.5973L67.0822 19.4383L67.3183 19.2877L67.5544 19.1538L67.7989 19.0282L68.0519 18.9111L68.3133 18.8106L68.5832 18.727L68.8614 18.6599L69.1482 18.6014L69.4433 18.5595L69.7469 18.5344L70.0589 18.5264L70.3034 18.5344L70.548 18.5512L70.7925 18.5846L71.0287 18.6348L71.1467 18.6683L71.2563 18.7017L71.366 18.7352L71.4672 18.7854L71.5684 18.8273L71.6695 18.8859L71.7623 18.9444L71.8551 19.003L71.9395 19.0784L72.0238 19.1537L72.0998 19.229L72.1757 19.3211L72.2432 19.4047L72.3023 19.5052L72.3528 19.614L72.4034 19.7228L72.4455 19.8399L72.4792 19.9655L72.5045 20.091L72.5298 20.2333L72.5387 20.3756V20.5262V20.6852L72.5219 20.8526H77.4803L77.5562 20.5095L77.6237 20.1161L77.6574 19.9069L77.6743 19.6809L77.6911 19.455V19.2206L77.6832 18.9779L77.6579 18.7268L77.6327 18.6097L77.6158 18.4841L77.5821 18.3586L77.5484 18.233L77.5063 18.0991L77.4641 17.9736L77.4136 17.8481L77.3545 17.7225L77.2954 17.597L77.2195 17.4714L77.1435 17.3459L77.0592 17.2204L76.958 17.0865L76.8484 16.9609L76.7387 16.8354L76.6207 16.7182L76.4942 16.601L76.3593 16.4922L76.2243 16.3918L76.081 16.2914L75.9292 16.1909L75.7774 16.1073L75.6172 16.0236L75.4485 15.9399L75.2799 15.8646L75.1028 15.7892L74.9173 15.7222L74.7318 15.6552L74.5462 15.5966L74.3439 15.5464L74.1499 15.4962L73.9391 15.4459L73.7283 15.4041L73.5174 15.3622L73.2982 15.3287L73.0705 15.3036L72.6067 15.2534L72.1345 15.2115L71.637 15.1947L71.131 15.1868L70.7515 15.1947L70.3552 15.2026L69.942 15.2278L69.5119 15.2612L69.065 15.3114L68.6096 15.37L68.1458 15.4454L67.6736 15.5458L67.4375 15.596L67.1929 15.6546L66.9568 15.7216L66.7123 15.7886L66.4677 15.8639L66.2232 15.9476L65.9786 16.0313L65.7425 16.1233L65.4979 16.2237L65.2534 16.3325L65.0173 16.4413L64.7727 16.5585L64.5366 16.684L64.3005 16.818L64.0644 16.9519L63.8283 17.1025V2.2889H80.3142V25.8986L80.3131 25.8994Z" fill="#A0FFE8"/>
</svg>
