<svg width="92" height="16" viewBox="0 0 92 16" fill="none" xmlns="http://www.w3.org/2000/svg">
<g clip-path="url(#clip0_1852_276)">
<path d="M50.0508 14.3612H61.9229V13.0545H52.0861V8.87305H59.4747V7.55086H52.0861V3.69847H61.9229V2.39648H50.0508V14.3612Z" fill="#A0FFE8"/>
<path d="M56.2206 0.462402L54.6133 2.08958L59.6591 0.462402H56.2206Z" fill="#A0FFE8"/>
<path d="M81.8556 13.0546V2.39667H80V14.3614H92.0017V13.0546H81.8556Z" fill="#A0FFE8"/>
<path d="M69.6185 2.39648L62.8672 14.3612H65.1492L66.8764 11.2644H74.9736L76.7155 14.3612H78.974L72.2173 2.39648H69.6185ZM67.731 9.76467L70.9124 4.04977L74.131 9.76467H67.731Z" fill="#A0FFE8"/>
<path d="M43.612 9.35814C46.6539 8.62673 46.9494 6.58722 46.934 5.85809C46.7524 3.72065 45.1543 2.39648 42.2826 2.39648H33.9141V14.3612H35.8218V9.34218H41.2699L45.278 14.3612H47.6826C47.6826 14.3612 44.7981 10.9833 43.612 9.35814ZM42.0221 7.92848H35.8218V3.81267H42.2382C43.7155 3.81267 44.5465 4.43413 44.8458 5.22357C45.0439 5.76472 44.9169 6.47509 44.5893 6.95872C44.053 7.75832 43.0344 7.92848 42.0221 7.92848Z" fill="#A0FFE8"/>
<path d="M22.4463 0.370605C17.0611 0.370605 13.3906 3.7921 13.3906 7.9333C13.3906 12.2929 17.4452 15.3706 22.4463 15.3706C27.4441 15.3706 31.497 12.3369 31.497 7.9333C31.497 3.7921 27.7811 0.370605 22.4463 0.370605ZM22.3817 13.8854C18.6559 13.8854 15.5861 11.1874 15.5861 7.93734C15.5861 4.6917 18.511 1.86451 22.5261 1.86451C26.4417 1.86451 29.3201 4.6917 29.3201 7.93734C29.3201 11.1873 26.1058 13.8854 22.3817 13.8854Z" fill="#A0FFE8"/>
<path d="M8.58594 6.62919H9.96249L12.4611 2.39648H10.4504L8.58594 6.62919Z" fill="#A0FFE8"/>
<path d="M1.85667 13.0546V2.39667H0V14.3614H12.0013V13.0546H1.85667Z" fill="#A0FFE8"/>
</g>
<defs>
<clipPath id="clip0_1852_276">
<rect width="92" height="15" fill="white" transform="translate(0 0.370605)"/>
</clipPath>
</defs>
</svg>
