<svg width="88" height="25" viewBox="0 0 88 25" fill="none" xmlns="http://www.w3.org/2000/svg">
<path d="M3.69569 3.24805C6.42337 3.24805 9.15106 3.24805 11.8784 3.24805C11.8787 3.42739 11.878 3.60709 11.8791 3.78643C11.4091 3.81357 10.9369 3.86015 10.4795 3.97458C10.2244 4.04242 9.96929 4.13228 9.75626 4.28998C9.58047 4.42128 9.46726 4.61602 9.38644 4.81443C9.21586 5.2714 9.19538 5.76504 9.1924 6.24695C9.19277 10.7708 9.1924 15.2943 9.19277 19.8181C9.19389 20.091 9.21549 20.3807 9.36633 20.618C9.48699 20.8021 9.71157 20.878 9.91901 20.9206C10.2628 20.9851 10.6136 20.9965 10.9622 21.0097C11.8058 21.02 12.6504 21.0251 13.4936 20.9932C14.4053 20.9602 15.3189 20.8982 16.2153 20.7258C16.6109 20.6448 17.006 20.5436 17.3717 20.3712C17.8779 20.1288 18.2827 19.7305 18.6425 19.3127C19.1784 18.6618 19.5996 17.9272 19.9717 17.1757C20.2179 17.1753 20.464 17.1746 20.7102 17.1761C20.2447 18.8059 19.7765 20.435 19.3121 22.0652C19.3065 22.1129 19.2797 22.1345 19.232 22.1305C14.0538 22.1316 8.87509 22.1312 3.6968 22.1308C3.69792 21.9511 3.69308 21.7718 3.70053 21.5925C4.21336 21.5371 4.72844 21.4681 5.22005 21.309C5.4584 21.2264 5.71054 21.1278 5.8718 20.9264C6.03418 20.709 6.10681 20.4416 6.15746 20.1801C6.23939 19.7206 6.24535 19.2526 6.24312 18.7876C6.24349 14.6803 6.24312 10.5735 6.24312 6.46627C6.24051 5.93045 6.22934 5.38252 6.06211 4.86761C5.97199 4.57898 5.7921 4.30428 5.50682 4.17225C4.94743 3.89609 4.30982 3.83961 3.69531 3.78717C3.69755 3.60746 3.69717 3.42775 3.69569 3.24805Z" fill="#A0FFE8"/>
<path d="M17.559 3.24841C20.1321 3.24841 22.7052 3.24841 25.278 3.24841C25.2806 3.41455 25.2806 3.58069 25.2784 3.74683C24.8311 3.75929 24.3793 3.76296 23.9395 3.85172C23.6132 3.9203 23.2847 4.11577 23.1708 4.43961C23.0348 4.81186 23.1566 5.20942 23.275 5.5692C23.5119 6.21688 23.8024 6.84365 24.0821 7.47409C25.6582 10.9289 27.2277 14.3862 28.8071 17.8395C30.006 14.7064 31.2034 11.5732 32.4018 8.44011C32.7005 7.64206 33.0283 6.85355 33.2871 6.04157C33.3988 5.65722 33.5162 5.25856 33.4625 4.85477C33.4309 4.57641 33.2938 4.30832 33.0719 4.13081C32.9113 4.00502 32.7199 3.9192 32.5207 3.87372C32.1352 3.78277 31.7378 3.75856 31.343 3.74646C31.3434 3.58032 31.343 3.41455 31.3434 3.24841C33.3169 3.24805 35.2904 3.24915 37.2636 3.24805C37.2658 3.41382 37.2647 3.57959 37.2651 3.74572C36.7075 3.82824 36.1072 3.97641 35.7213 4.41247C35.2297 4.95049 34.9277 5.62385 34.6513 6.28656C33.4879 9.19121 32.3337 12.0995 31.1739 15.0056C30.1844 17.4937 29.1874 19.9791 28.2027 22.469C28.0545 22.4716 27.9066 22.4708 27.7587 22.4701C26.5543 19.8269 25.3499 17.1838 24.1458 14.5402C22.9048 11.8237 21.6743 9.10246 20.4274 6.38888C20.1135 5.74267 19.7973 5.08839 19.3545 4.51663C18.9336 3.97824 18.2167 3.79157 17.5586 3.74609C17.5586 3.57995 17.5586 3.41418 17.559 3.24841Z" fill="#A0FFE8"/>
<path d="M38.4275 3.24841C40.3333 3.24915 42.2394 3.24951 44.1451 3.24805C46.3666 7.98424 48.5834 12.7226 50.8016 17.4603C52.968 12.7237 55.1303 7.98497 57.2975 3.24841C59.2181 3.24988 61.1384 3.24731 63.059 3.24951C63.0601 3.42885 63.0598 3.60783 63.0594 3.7868C62.5656 3.82641 62.0669 3.87885 61.5939 4.03069C61.338 4.11614 61.0758 4.23203 60.9086 4.44988C60.7198 4.70037 60.6405 5.01064 60.5872 5.31321C60.5038 5.82776 60.5116 6.35037 60.5135 6.86969C60.5135 10.7085 60.5135 14.5476 60.5131 18.3867C60.5146 18.9596 60.4967 19.5368 60.592 20.1042C60.6419 20.3829 60.7135 20.6671 60.881 20.9019C61.0367 21.1201 61.2956 21.2319 61.5421 21.3207C62.0307 21.485 62.5473 21.5466 63.059 21.5958C63.0601 21.7744 63.0594 21.9526 63.0598 22.1312C60.3518 22.1323 57.6442 22.1316 54.9363 22.1316C54.9355 21.953 54.9359 21.774 54.9359 21.5954C55.4178 21.5547 55.902 21.4993 56.369 21.3698C56.6413 21.2848 56.9295 21.1876 57.1273 20.9737C57.3571 20.7009 57.423 20.3393 57.4822 19.9997C57.5843 19.308 57.5608 18.6068 57.5642 17.9099C57.5627 13.9061 57.5671 9.90234 57.5619 5.89854C55.0849 11.3074 52.6138 16.7191 50.1435 22.1312C50.0068 22.1319 49.8697 22.1367 49.7338 22.1228C48.3927 19.2328 47.0326 16.3512 45.6851 13.4638C44.6039 11.1632 43.5339 8.85784 42.4479 6.55942C42.4539 9.756 42.4487 12.9526 42.4505 16.1492C42.4591 17.0785 42.4241 18.0097 42.4896 18.9376C42.5287 19.3821 42.5935 19.8277 42.7358 20.2527C42.8382 20.5406 42.9757 20.8307 43.214 21.0343C43.4002 21.1843 43.6274 21.2749 43.8542 21.3482C44.278 21.4821 44.7205 21.5404 45.16 21.5998C45.1555 21.7769 45.1581 21.9541 45.1574 22.1316C42.8941 22.1319 40.6308 22.1319 38.3679 22.1316C38.3672 21.9526 38.3676 21.774 38.3672 21.5954C38.8651 21.5374 39.3657 21.4663 39.8405 21.3016C40.147 21.192 40.4576 21.0449 40.6673 20.79C40.8919 20.4999 40.9742 20.1339 41.0446 19.7833C41.2014 18.8737 41.1705 17.9477 41.1749 17.029C41.1749 13.7411 41.1749 10.4528 41.1749 7.16492C41.1671 6.6137 41.1973 6.05954 41.1277 5.51125C41.08 5.15331 41.0074 4.78326 40.7992 4.47886C40.6368 4.24194 40.3597 4.11871 40.0934 4.03142C39.5549 3.86418 38.9865 3.82238 38.4264 3.7879C38.4294 3.60783 38.4283 3.42812 38.4275 3.24841Z" fill="#A0FFE8"/>
<path d="M66.2109 3.25013C68.8906 3.24426 71.5702 3.25233 74.2495 3.24609C74.2581 3.42617 74.2532 3.60661 74.2536 3.78668C73.7933 3.82409 73.3303 3.87287 72.886 4.0016C72.6406 4.08008 72.3881 4.17103 72.197 4.34781C71.9914 4.54255 71.8905 4.81504 71.8265 5.0824C71.7296 5.51223 71.708 5.95453 71.7077 6.3939C71.7077 8.23058 71.7077 10.0673 71.708 11.9039C74.6376 11.9032 77.5671 11.9039 80.4967 11.9032C80.4956 9.99317 80.5008 8.08278 80.4941 6.17275C80.4799 5.67544 80.4509 5.16382 80.2542 4.69879C80.1585 4.46553 79.9782 4.26749 79.7451 4.16223C79.1879 3.89341 78.5578 3.83876 77.9489 3.78741C77.9515 3.60734 77.9503 3.42763 77.95 3.24793C80.6307 3.24903 83.3119 3.24756 85.993 3.24866C85.9926 3.42763 85.9915 3.60697 85.9938 3.78595C85.3677 3.84353 84.7159 3.89671 84.151 4.19121C83.8564 4.34231 83.6836 4.64377 83.6009 4.95001C83.4083 5.63436 83.4527 6.35172 83.4463 7.05405C83.4463 11.027 83.4463 15.0004 83.4463 18.9734C83.4471 19.4091 83.4638 19.8477 83.5584 20.2746C83.6068 20.4969 83.6854 20.7162 83.8161 20.9047C83.9759 21.117 84.2296 21.2318 84.475 21.3206C84.964 21.4849 85.4805 21.5447 85.9923 21.5949C85.9926 21.7731 85.9923 21.9517 85.993 22.1304C83.3122 22.1326 80.6315 22.1307 77.9507 22.1311C77.95 21.9521 77.9503 21.7735 77.9503 21.5949C78.4181 21.5447 78.8878 21.4852 79.3418 21.3587C79.5969 21.2773 79.8661 21.1907 80.0609 21C80.2669 20.7811 80.335 20.4785 80.3909 20.1943C80.516 19.5011 80.4929 18.794 80.497 18.0936C80.4967 16.4491 80.4982 14.8045 80.4963 13.16C77.5667 13.1589 74.6372 13.1608 71.7077 13.1589C71.7077 15.0847 71.7077 17.0102 71.7077 18.936C71.7077 19.4168 71.7252 19.9027 71.8421 20.3714C71.914 20.634 72.0212 20.9065 72.2458 21.0796C72.4391 21.2249 72.6704 21.3125 72.902 21.3804C73.3426 21.5032 73.7996 21.552 74.254 21.5964C74.254 21.7742 74.2543 21.9525 74.254 22.1311C71.5736 22.1315 68.8928 22.1315 66.2124 22.1311C66.2113 21.9525 66.2117 21.7739 66.2121 21.5956C66.707 21.5381 67.205 21.4709 67.682 21.3231C67.9401 21.237 68.2154 21.1328 68.3867 20.9131C68.5923 20.6175 68.6455 20.253 68.6951 19.906C68.7893 19.1223 68.7494 18.3312 68.7584 17.5438C68.7584 13.84 68.7584 10.1358 68.7587 6.43167C68.7584 5.98057 68.7401 5.5258 68.6399 5.08387C68.5748 4.81725 68.4768 4.54328 68.272 4.34817C68.0727 4.16443 67.809 4.07091 67.5528 3.99279C67.1163 3.86957 66.6623 3.82299 66.2113 3.78668C66.2121 3.60771 66.2124 3.4291 66.2109 3.25013Z" fill="#A0FFE8"/>
</svg>
