<svg width="95" height="21" viewBox="0 0 95 21" fill="none" xmlns="http://www.w3.org/2000/svg">
<g clip-path="url(#clip0_1852_270)">
<path d="M40.042 4.87082V16.8708H37.9538V7.45416H37.9259L34.1949 16.8708H32.8027L28.9881 7.45416H28.9603V16.8708H27.0391V4.87082H30.0462L33.4988 13.7597H33.5545L37.202 4.87082H40.042ZM41.7683 5.78749C41.7683 5.45416 41.8797 5.17638 42.1303 4.95416C42.3809 4.73193 42.6593 4.62082 42.9934 4.62082C43.3554 4.62082 43.6617 4.73193 43.8844 4.95416C44.1072 5.17638 44.2464 5.45416 44.2464 5.78749C44.2464 6.12082 44.135 6.3986 43.8844 6.62082C43.6338 6.84305 43.3554 6.95416 42.9934 6.95416C42.6315 6.95416 42.353 6.84305 42.1303 6.62082C41.9075 6.37082 41.7683 6.09305 41.7683 5.78749ZM44.0237 8.25971V16.8708H41.9911V8.25971H44.0237ZM50.1771 15.3986C50.4834 15.3986 50.8175 15.343 51.1795 15.1764C51.5414 15.0375 51.8756 14.843 52.1818 14.6208V16.5097C51.8477 16.7042 51.4857 16.843 51.0681 16.9264C50.6504 17.0097 50.2049 17.0653 49.7038 17.0653C48.423 17.0653 47.3927 16.6764 46.6131 15.8708C45.8057 15.0653 45.4158 14.0375 45.4158 12.8153C45.4158 11.4264 45.8335 10.2875 46.641 9.3986C47.4484 8.50971 48.59 8.06527 50.0936 8.06527C50.4834 8.06527 50.8732 8.12082 51.2352 8.20416C51.625 8.28749 51.9312 8.42638 52.154 8.53749V10.4819C51.8477 10.2597 51.5136 10.0653 51.2073 9.95416C50.8732 9.84304 50.5391 9.75971 50.2049 9.75971C49.3975 9.75971 48.7571 10.0097 48.2559 10.5375C47.7547 11.0653 47.532 11.7597 47.532 12.6486C47.532 13.5097 47.7825 14.2042 48.2559 14.6764C48.7292 15.1486 49.3696 15.3986 50.1771 15.3986ZM57.9455 8.12082C58.1125 8.12082 58.2517 8.12082 58.391 8.1486C58.5302 8.17638 58.6415 8.20416 58.7251 8.23193V10.2875C58.6137 10.2042 58.4745 10.1208 58.2517 10.0653C58.029 10.0097 57.8062 9.95416 57.5 9.95416C56.9988 9.95416 56.5811 10.1764 56.247 10.593C55.9129 11.0097 55.718 11.6486 55.718 12.5375V16.8708H53.6854V8.25971H55.718V9.62082H55.7458C55.9407 9.1486 56.2192 8.78749 56.5811 8.50971C56.9709 8.25971 57.4164 8.12082 57.9455 8.12082ZM58.8365 12.7042C58.8365 11.2875 59.2541 10.1486 60.0337 9.31527C60.8412 8.48193 61.9549 8.06527 63.375 8.06527C64.7115 8.06527 65.7695 8.45416 66.5213 9.25971C67.2731 10.0653 67.6629 11.1486 67.6629 12.5097C67.6629 13.8986 67.2452 15.0097 66.4656 15.843C65.6581 16.6764 64.5722 17.093 63.1801 17.093C61.8436 17.093 60.7855 16.7042 60.0059 15.9264C59.2263 15.1208 58.8365 14.0375 58.8365 12.7042ZM60.9526 12.6208C60.9526 13.5097 61.1475 14.2042 61.5651 14.6764C61.9828 15.1486 62.5675 15.3986 63.3193 15.3986C64.0432 15.3986 64.6279 15.1764 65.0177 14.6764C65.4075 14.2042 65.6024 13.5097 65.6024 12.5653C65.6024 11.6486 65.4075 10.9542 65.0177 10.4542C64.6279 9.98193 64.0432 9.73193 63.3471 9.73193C62.5953 9.73193 62.0385 9.98193 61.6208 10.4819C61.1475 11.0097 60.9526 11.7042 60.9526 12.6208ZM70.6978 10.5375C70.6978 10.8153 70.7814 11.0653 70.9763 11.2319C71.1712 11.3986 71.561 11.593 72.2014 11.843C73.0088 12.1764 73.5936 12.5375 73.8998 12.9264C74.234 13.343 74.401 13.8153 74.401 14.3986C74.401 15.2042 74.0947 15.843 73.4543 16.343C72.8418 16.843 71.9786 17.0653 70.9206 17.0653C70.5586 17.0653 70.1688 17.0097 69.7233 16.9264C69.2778 16.843 68.9158 16.7319 68.6096 16.593V14.593C68.9715 14.843 69.3892 15.0653 69.8068 15.2042C70.2245 15.343 70.6143 15.4264 70.9763 15.4264C71.4218 15.4264 71.7837 15.3708 71.9786 15.2319C72.2014 15.093 72.3128 14.8986 72.3128 14.593C72.3128 14.3153 72.2014 14.093 71.9786 13.8708C71.7559 13.6764 71.3104 13.4542 70.6978 13.2042C69.9461 12.8986 69.417 12.5375 69.1107 12.1486C68.8045 11.7597 68.6374 11.2597 68.6374 10.6486C68.6374 9.87082 68.9437 9.23193 69.5562 8.73193C70.1688 8.23193 70.9763 7.98193 71.9508 7.98193C72.2571 7.98193 72.5912 8.00971 72.9532 8.09304C73.3151 8.17638 73.6493 8.25971 73.8998 8.34304V10.3153C73.6214 10.1486 73.3151 9.98193 72.9532 9.84304C72.5912 9.70416 72.2292 9.6486 71.8951 9.6486C71.5053 9.6486 71.199 9.73193 71.0041 9.87082C70.8092 10.0653 70.6978 10.2597 70.6978 10.5375ZM75.2642 12.7042C75.2642 11.2875 75.6818 10.1486 76.4615 9.31527C77.2689 8.48193 78.3827 8.06527 79.8027 8.06527C81.1392 8.06527 82.1972 8.45416 82.949 9.25971C83.7008 10.0653 84.0906 11.1486 84.0906 12.5097C84.0906 13.8986 83.6729 15.0097 82.8933 15.843C82.0859 16.6764 81 17.093 79.6078 17.093C78.2713 17.093 77.2132 16.7042 76.4336 15.9264C75.6818 15.1208 75.2642 14.0375 75.2642 12.7042ZM77.3803 12.6208C77.3803 13.5097 77.5752 14.2042 77.9929 14.6764C78.4105 15.1486 78.9952 15.3986 79.747 15.3986C80.4709 15.3986 81.0557 15.1764 81.4455 14.6764C81.8353 14.2042 82.0302 13.5097 82.0302 12.5653C82.0302 11.6486 81.8353 10.9542 81.4455 10.4542C81.0557 9.98193 80.4709 9.73193 79.7748 9.73193C79.0231 9.73193 78.4662 9.98193 78.0485 10.4819C77.603 11.0097 77.3803 11.7042 77.3803 12.6208ZM90.8566 9.92638H87.8216V16.8708H85.7612V9.92638H84.3133V8.25971H85.7612V7.06527C85.7612 6.17638 86.0675 5.42638 86.6522 4.84304C87.2369 4.25971 87.9887 3.98193 88.9075 3.98193C89.1581 3.98193 89.3809 4.00971 89.5758 4.00971C89.7707 4.00971 89.9378 4.06527 90.077 4.12082V5.87082C90.0213 5.84304 89.8821 5.78749 89.715 5.73193C89.5479 5.67638 89.353 5.6486 89.1303 5.6486C88.7126 5.6486 88.3785 5.78749 88.1558 6.03749C87.933 6.28749 87.8216 6.70416 87.8216 7.20416V8.23193H90.8566V6.28749L92.8892 5.67638V8.23193H94.9496V9.8986H92.8892V13.9264C92.8892 14.4542 93.0006 14.8153 93.1676 15.0375C93.3625 15.2597 93.6688 15.3708 94.0865 15.3708C94.1978 15.3708 94.337 15.343 94.5041 15.2875C94.6712 15.2319 94.8104 15.1764 94.9218 15.093V16.7597C94.7825 16.843 94.5876 16.8986 94.2814 16.9542C93.9751 17.0097 93.6966 17.0375 93.3904 17.0375C92.5272 17.0375 91.8868 16.8153 91.4692 16.3708C91.0515 15.9264 90.8287 15.2319 90.8287 14.3153L90.8566 9.92638Z" fill="#A0FFE8"/>
<path d="M10.4717 0.870605H0.949219V10.3706H10.4717V0.870605Z" fill="#A0FFE8"/>
<path d="M20.9991 0.870605H11.4766V10.3706H20.9991V0.870605Z" fill="#A0FFE8"/>
<path d="M10.4717 11.3706H0.949219V20.8706H10.4717V11.3706Z" fill="#A0FFE8"/>
<path d="M20.9991 11.3706H11.4766V20.8706H20.9991V11.3706Z" fill="#A0FFE8"/>
</g>
<defs>
<clipPath id="clip0_1852_270">
<rect width="94" height="20" fill="white" transform="translate(0.949219 0.870605)"/>
</clipPath>
</defs>
</svg>
