<svg width="92" height="26" viewBox="0 0 92 26" fill="none" xmlns="http://www.w3.org/2000/svg">
<path d="M13.1831 23.8959C11.8122 24.1434 10.4172 24.2176 8.97415 24.4151L4.57265 11.1649V24.9838C3.20178 25.1321 1.95113 25.3299 0.652344 25.5276V0.213562H4.30825L9.31082 14.5765V0.213562H13.1831V23.8959ZM20.7593 9.48385C22.2506 9.48385 24.5354 9.40967 25.9063 9.40967V13.3649C24.1986 13.3649 22.2024 13.3649 20.7593 13.4391V19.3227C23.0202 19.1745 25.281 18.9765 27.5658 18.9023V22.7091L16.911 23.5745V0.213562H27.5658V4.16889H20.7593V9.48385ZM41.8763 4.16898H37.8838V22.3634C36.585 22.3634 35.2862 22.3634 34.0358 22.4127V4.16898H30.0433V0.213562H41.8765L41.8763 4.16898ZM48.1296 9.212H53.3969V13.1672H48.1296V22.141H44.3533V0.213562H55.1046V4.16889H48.1296V9.212ZM61.3579 18.68C63.5466 18.7293 65.7592 18.9026 67.8999 19.026V22.9319C64.4606 22.7093 61.0212 22.4871 57.5097 22.4127V0.213562H61.3579V18.68ZM71.1468 23.2039C72.3734 23.2781 73.6722 23.3523 74.9228 23.5004V0.213562H71.1468V23.2039ZM91.783 0.213562L86.9004 12.2526L91.783 25.5276C90.3397 25.3299 88.8967 25.0579 87.4535 24.8107L84.6878 17.4935L81.874 24.2176C80.4787 23.9701 79.1319 23.8959 77.7372 23.6982L82.6917 12.1041L78.218 0.213562H82.3547L84.8801 6.86346L87.5739 0.213562L91.783 0.213562Z" fill="#A0FFE8"/>
</svg>
