<svg width="117" height="37" viewBox="0 0 117 37" fill="none" xmlns="http://www.w3.org/2000/svg">
<g clip-path="url(#clip0_1852_342)">
<path d="M86.4895 13.9905H84.8195C84.6395 13.9905 84.4795 14.1005 84.4295 14.2805C84.3495 14.5305 84.2895 14.6905 84.2695 14.7905C83.6095 16.8005 82.5995 19.8405 81.2895 23.8905C81.2695 23.9505 81.1895 24.1805 81.0195 24.5505C80.9695 24.6505 80.8495 24.7005 80.7495 24.6505C80.7095 24.6305 80.6695 24.5905 80.6495 24.5505C80.5095 24.2205 80.4195 24.0205 80.3795 23.8905C79.0195 19.7205 78.0195 16.5905 77.3595 14.5105C77.3295 14.4405 77.3095 14.3805 77.2995 14.3005C77.2495 14.1305 77.0895 14.0105 76.9095 14.0105H75.2695C75.0395 14.0105 74.8595 14.1905 74.8595 14.4205C74.8595 14.4605 74.8595 14.5005 74.8795 14.5405C74.8895 14.6005 74.9095 14.6505 74.9395 14.7005C75.9695 17.6205 77.5095 21.9805 79.5695 27.7805C79.5695 27.8005 79.5695 27.8105 79.5895 27.8205C79.6195 27.9005 79.6195 27.9905 79.5895 28.0705C79.5895 28.0705 79.5829 28.0838 79.5695 28.1105C79.5495 28.1905 79.5095 28.2905 79.4895 28.3805C79.1995 29.1905 78.4395 29.7305 77.5795 29.7405H75.8495C75.6195 29.7405 75.4395 29.9205 75.4395 30.1505V31.5305C75.4395 31.7605 75.6195 31.9405 75.8495 31.9405H77.5795C79.2595 31.9405 80.7695 30.9505 81.4495 29.4105C81.4695 29.3505 81.4995 29.2805 81.5295 29.2305C81.5495 29.1705 82.7595 25.7405 86.8095 14.4305C86.8395 14.3505 86.8395 14.2705 86.8095 14.2005C86.7795 14.1305 86.7095 14.0705 86.6295 14.0405C86.5695 14.0205 86.5495 14.0005 86.5095 14.0005L86.4895 13.9905ZM64.5795 25.6705C64.9695 25.8005 65.3795 25.8605 65.7895 25.8505C67.0095 25.8305 68.1795 25.3505 69.0595 24.4905C69.6995 23.8505 70.0495 22.9705 70.0295 22.0705V21.0005C70.0295 20.9405 70.0095 20.8905 69.9595 20.8505C69.9195 20.8105 69.8595 20.8005 69.7995 20.8105C69.5895 20.8305 69.4895 20.8305 69.4895 20.8305L68.1895 20.9905L65.6195 21.3805C64.2395 21.6105 63.3995 22.1605 63.1295 23.0205C63.0595 23.2305 63.0295 23.4405 63.0295 23.6605C63.0495 24.5905 63.6795 25.3905 64.5695 25.6505L64.5795 25.6705ZM72.3295 26.5805V27.4005C72.3295 27.6305 72.1495 27.8105 71.9195 27.8105H70.5795C70.3495 27.8105 70.1695 27.6305 70.1695 27.4005L70.1495 26.0405C70.1495 26.0405 70.1395 26.0005 70.1295 25.9805C70.1095 25.9605 70.0895 25.9505 70.0595 25.9505C70.0295 25.9505 70.0095 25.9605 69.9895 25.9805C69.9095 26.0505 69.8295 26.1305 69.7595 26.2105C68.6895 27.2805 67.2295 27.8105 65.3395 27.8105C63.9795 27.8105 62.8695 27.4405 62.0095 26.7205C61.1495 26.0005 60.7395 25.0005 60.7395 23.7205C60.7195 23.1105 60.8495 22.5105 61.1095 21.9505C61.3295 21.4905 61.6695 21.0905 62.0995 20.8005C62.4695 20.5405 62.8695 20.3305 63.2895 20.1805C63.6695 20.0405 64.0595 19.9405 64.4595 19.8705C66.4495 19.5805 67.5195 19.4405 67.7295 19.4005C67.8895 19.3805 68.5495 19.3005 69.6795 19.1305C69.7495 19.1105 69.8295 19.1105 69.9095 19.1105C70.0095 19.0905 70.0895 19.0105 70.0895 18.9005V18.3305C70.0895 17.4705 69.8595 16.7905 69.4095 16.3205C68.9595 15.8505 68.1095 15.6005 66.8995 15.6005C66.3395 15.5905 65.7895 15.6705 65.2595 15.8305C64.8495 15.9505 64.4895 16.1905 64.2095 16.5105C64.0195 16.7505 63.8695 17.0105 63.7595 17.2905C63.7395 17.3505 63.7195 17.4105 63.6995 17.5005C63.6995 17.5205 63.6995 17.5505 63.6795 17.5605C63.6395 17.7505 63.4695 17.8905 63.2695 17.8905H61.7295C61.5095 17.8705 61.3395 17.6805 61.3395 17.4605V17.3805C61.3595 17.2205 61.3795 17.0905 61.3995 16.9905C61.4995 16.5905 61.6595 16.2105 61.8695 15.8605C62.1195 15.4705 62.4295 15.1205 62.7995 14.8305C63.2895 14.5005 63.8295 14.2505 64.3995 14.0905C65.1895 13.8905 65.9895 13.7905 66.8095 13.8005C70.5295 13.8005 72.3395 15.2805 72.3395 18.2805V26.5705L72.3295 26.5805ZM102.81 14.3005V27.3605C102.81 27.5905 102.99 27.7705 103.22 27.7705H104.89C105.12 27.7705 105.3 27.5905 105.3 27.3605V14.3005C105.3 14.0705 105.12 13.8905 104.89 13.8905H103.22C102.99 13.8905 102.81 14.0705 102.81 14.3005ZM102.81 10.1505V11.8105C102.81 12.0405 102.99 12.2205 103.22 12.2205H104.89C105.12 12.2205 105.3 12.0405 105.3 11.8105V10.1505C105.3 9.92047 105.12 9.74047 104.89 9.74047H103.22C102.99 9.74047 102.81 9.92047 102.81 10.1505ZM113.07 16.0605H116.59C116.82 16.0605 117 15.8805 117 15.6505V14.2705C117 14.0405 116.82 13.8605 116.59 13.8605H113.07C113.01 13.8605 112.96 13.8405 112.92 13.8005C112.88 13.7605 112.86 13.7105 112.86 13.6505V10.1405C112.86 9.91047 112.68 9.73047 112.45 9.73047H110.78C110.55 9.73047 110.37 9.91047 110.37 10.1405V13.6705C110.37 13.7305 110.35 13.7805 110.31 13.8205C110.27 13.8605 110.22 13.8805 110.16 13.8805H108.64C108.41 13.8805 108.23 14.0605 108.23 14.2905V15.6705C108.23 15.9005 108.41 16.0805 108.64 16.0805H110.16C110.22 16.0805 110.27 16.1005 110.31 16.1405C110.35 16.1805 110.37 16.2305 110.37 16.2905V23.7005C110.45 25.9605 112.3 27.7605 114.56 27.7705H116.43C116.66 27.7705 116.84 27.5905 116.84 27.3605V25.9805C116.84 25.7505 116.66 25.5705 116.43 25.5705H114.56C114.1 25.5705 113.66 25.3905 113.34 25.0705C113.02 24.7505 112.84 24.3105 112.84 23.8505V16.2705C112.86 16.1605 112.95 16.0705 113.07 16.0605ZM58.8395 15.3405C58.8395 12.2905 56.3995 9.80047 53.3495 9.73047H45.4295C45.1995 9.73047 45.0195 9.91047 45.0195 10.1405V27.3505C45.0195 27.5805 45.1995 27.7605 45.4295 27.7605H47.0995C47.3295 27.7605 47.5095 27.5805 47.5095 27.3505V21.1705C47.5095 21.1105 47.5295 21.0605 47.5695 21.0205C47.6095 20.9805 47.6595 20.9605 47.7195 20.9605H53.3495C56.3995 20.8805 58.8395 18.3805 58.8395 15.3305V15.3405ZM56.6595 15.3405C56.6595 17.2205 55.1295 18.7505 53.2495 18.7505H47.7395C47.6795 18.7505 47.6295 18.7305 47.5895 18.6905C47.5495 18.6505 47.5295 18.6005 47.5295 18.5405V12.1305C47.5295 12.0705 47.5495 12.0205 47.5895 11.9805C47.6295 11.9405 47.6795 11.9205 47.7395 11.9205H53.2495C55.1295 11.9205 56.6595 13.4505 56.6595 15.3305V15.3405ZM91.9395 20.9105H98.1895C98.4195 20.9105 98.5995 20.7305 98.5995 20.5005V19.1205C98.5995 18.8905 98.4195 18.7105 98.1895 18.7105H91.9395C91.8795 18.7105 91.8295 18.6905 91.7895 18.6505C91.7495 18.6105 91.7295 18.5605 91.7295 18.5005V12.1405C91.7295 12.0805 91.7495 12.0305 91.7895 11.9905C91.8295 11.9505 91.8795 11.9305 91.9395 11.9305H99.6095C99.8395 11.9305 100.02 11.7505 100.02 11.5205V10.1405C100.02 9.91047 99.8395 9.73047 99.6095 9.73047H89.6595C89.4295 9.73047 89.2495 9.91047 89.2495 10.1405V27.3505C89.2495 27.5805 89.4295 27.7605 89.6595 27.7605H91.3295C91.5595 27.7605 91.7395 27.5805 91.7395 27.3505V21.1105C91.7395 21.0005 91.8295 20.9005 91.9495 20.9005L91.9395 20.9105Z" fill="#A0FFE8"/>
<path fill-rule="evenodd" clip-rule="evenodd" d="M18.02 36.5C8.07 36.5 0 28.44 0 18.5C0 8.56 8.07 0.5 18.02 0.5C27.97 0.5 36.04 8.56 36.04 18.5C36.04 28.44 27.97 36.5 18.02 36.5ZM17.78 24.9V21.32C17.78 21.26 17.8 21.21 17.84 21.17C17.88 21.13 17.93 21.11 17.99 21.11H22.19C25.15 20.99 27.49 18.56 27.48 15.6C27.48 12.64 25.13 10.22 22.17 10.11H11.89C11.66 10.11 11.48 10.29 11.48 10.52V24.96C11.48 26.7 12.89 28.11 14.63 28.11C16.37 28.11 17.78 26.7 17.78 24.96C17.81 24.92 17.81 24.9 17.78 24.9ZM17.98 16.41H21.95C22.4 16.41 22.77 16.04 22.77 15.59C22.77 15.14 22.4 14.77 21.95 14.77H16.56C16.33 14.77 16.15 14.95 16.15 15.18V24.94C16.15 25.79 15.46 26.47 14.61 26.47C13.76 26.47 13.07 25.78 13.07 24.94V11.93C13.07 11.87 13.09 11.82 13.13 11.78C13.17 11.74 13.22 11.72 13.28 11.72H21.94C23.33 11.69 24.63 12.41 25.35 13.6C26.07 14.79 26.09 16.27 25.42 17.49C24.75 18.71 23.48 19.47 22.09 19.5H17.97C17.91 19.5 17.86 19.48 17.82 19.44C17.78 19.4 17.76 19.35 17.76 19.29V16.63C17.76 16.51 17.85 16.42 17.96 16.41H17.98Z" fill="#A0FFE8"/>
</g>
<defs>
<clipPath id="clip0_1852_342">
<rect width="117" height="36" fill="white" transform="translate(0 0.5)"/>
</clipPath>
</defs>
</svg>
