<svg width="91" height="28" viewBox="0 0 91 28" fill="none" xmlns="http://www.w3.org/2000/svg">
<g clip-path="url(#clip0_1852_255)">
<path d="M24.5086 27.5407L21.429 26.8405C20.446 26.5247 19.4934 26.1365 18.5632 25.6772C8.89346 30.1694 -1.08403 22.2945 0.68596 11.1008C1.864 3.65403 8.31912 -0.86568 15.2875 0.418711C25.2709 2.2573 28.6711 15.3084 22.0457 22.9686L25.3014 23.6239L24.861 27.542H24.5086V27.5407ZM11.1321 15.8801L14.6556 14.7043C15.2675 16.4929 16.0533 18.2654 17.2466 19.7058C17.3805 19.8681 18.3271 20.8841 18.4094 20.9078C18.6126 20.964 19.1152 20.3574 19.2726 20.1726C23.8544 14.7842 21.0931 4.71125 13.8922 4.04347C1.95443 2.93382 1.09234 22.7851 12.8586 23.0535L14.7425 22.8313C14.8882 22.7114 14.7872 22.7314 14.7449 22.6415C14.5793 22.2921 14.0742 21.8252 13.8252 21.4695C12.6437 19.7782 11.7675 17.8734 11.1333 15.8813L11.1321 15.8801Z" fill="#A0FFE8"/>
<path d="M90.5981 16.7171V18.4896C89.4119 30.5134 72.1242 29.3913 72.8172 16.9455C73.4643 5.32611 89.6679 5.23874 90.5981 16.7171ZM81.2525 11.8941C74.5836 12.4421 75.1791 23.6883 82.1052 23.1528C88.8892 22.6298 88.181 11.3237 81.2525 11.8941Z" fill="#A0FFE8"/>
<path d="M34.6994 8.16272C41.2755 7.49244 46.1768 13.4551 44.442 20.264C42.2516 28.854 30.2504 29.2871 27.5009 20.8718C25.6733 15.2799 28.976 8.74687 34.7006 8.16272H34.6994ZM35.4042 11.8948C28.7223 12.5551 29.4177 23.6828 36.2569 23.1548C43.096 22.6268 42.2492 11.2183 35.4042 11.8948Z" fill="#A0FFE8"/>
<path d="M61.6484 26.5141H57.9523V15.4588C57.9523 14.826 57.1994 13.4418 56.7636 12.9874C54.2713 10.3837 50.1194 12.3396 50.1194 15.9257V26.5153H46.6875V8.50765H50.1194V10.3737C50.8958 9.475 51.6886 8.70487 52.8279 8.34788C56.4089 7.22451 60.232 9.84946 61.3208 13.473C61.403 13.7463 61.6473 14.6737 61.6473 14.8984V26.5141H61.6484Z" fill="#A0FFE8"/>
<path d="M67.1909 3.84335V8.50785H71.7668V12.1463H67.1909V20.6827C67.1909 21.0834 67.6419 22.0345 67.8968 22.3591C68.9891 23.7495 70.8142 23.4038 72.206 22.7809V26.4656C71.7104 26.7252 70.9716 26.8501 70.4067 26.89C65.9388 27.2008 63.8001 24.2026 63.5792 19.7528C63.3255 14.6427 63.7801 9.2992 63.5792 4.16414L63.7155 3.8421H67.192L67.1909 3.84335Z" fill="#A0FFE8"/>
</g>
<defs>
<clipPath id="clip0_1852_255">
<rect width="90.118" height="27.3392" fill="white" transform="translate(0.480469 0.200989)"/>
</clipPath>
</defs>
</svg>
