<svg width="74" height="39" viewBox="0 0 74 39" fill="none" xmlns="http://www.w3.org/2000/svg">
<g clip-path="url(#clip0_1852_323)">
<path d="M1.426 0.116182C0.611272 0.149373 0.0898438 0.531076 0.0898438 1.34427V37.7885C0.0898438 38.4192 0.529799 39 1.23047 39H65.0892C65.6595 39 66.1157 38.9502 66.3927 38.1702C66.3927 38.1702 72.8617 17.5417 72.9758 17.16C73.2202 16.38 73.0573 15.9817 72.4055 15.5668C51.6135 1.9915 20.507 0.0332031 6.37958 0.0332031C4.35904 0.0332031 2.68069 0.0663946 1.426 0.116182Z" fill="#A0FFE8"/>
<mask id="mask0_1852_323" style="mask-type:luminance" maskUnits="userSpaceOnUse" x="0" y="0" width="74" height="39">
<path d="M1.426 0.116182C0.611272 0.149373 0.0898438 0.531076 0.0898438 1.34427V37.7885C0.0898438 38.4192 0.529799 39 1.23047 39H65.0892C65.6595 39 66.1157 38.9502 66.3927 38.1702C66.3927 38.1702 72.8617 17.5417 72.9758 17.16C73.2202 16.38 73.0573 15.9817 72.4055 15.5668C51.6135 1.9915 20.507 0.0332031 6.37958 0.0332031C4.35904 0.0332031 2.68069 0.0663946 1.426 0.116182Z" fill="white"/>
</mask>
<g mask="url(#mask0_1852_323)">
<path d="M73.0898 0H0.0898438V39H73.0898V0Z" fill="#A0FFE8"/>
</g>
<path d="M14.6587 23.3998C12.3123 22.2547 10.7154 21.6407 11.1065 20.479C11.5627 19.1015 13.9254 18.587 16.06 18.6368C17.1192 18.6534 17.885 18.7862 18.765 19.0019L19.5471 16.5126C18.4391 16.2968 17.6406 16.1973 16.3045 16.1641C12.019 16.0645 8.15714 17.2594 7.16317 19.8151C5.98996 22.8356 9.33036 24.5283 12.2308 25.939C14.5283 27.0509 16.3533 28.113 15.7179 29.4904C15.2127 30.5692 13.5996 31.067 11.2205 31.0173C9.16741 30.9675 6.60915 30.37 4.58862 29.3411L3.38281 31.9798C4.86562 32.6768 7.92902 33.6394 10.5362 33.6892C15.4408 33.8053 18.602 32.5441 19.873 29.839C21.3721 26.6194 17.6406 24.8602 14.6587 23.3998Z" fill="black"/>
<path d="M66.7054 19.0019L67.5201 16.3798H54.4518L50.0196 30.5028C49.0746 30.7517 47.9176 30.8679 46.6955 30.8679C44.0721 30.8679 41.9701 30.2372 40.7806 28.8266C39.8844 27.7645 39.5259 26.4036 39.754 24.8768C40.2754 21.2423 43.7625 18.9355 48.4065 18.9355C49.3841 18.9355 50.3944 19.0019 51.3069 19.1181L52.2194 16.3798C51.0951 16.1972 49.7426 16.1309 48.4065 16.1309C44.2839 16.1309 40.6991 17.5747 38.369 20.1304C38.3038 20.2134 38.2223 20.2134 38.1734 20.2134C38.1083 20.2134 38.0594 20.1968 38.0757 20.1304L39.2326 16.413H35.827L32.0955 28.3121C30.906 24.7938 28.4618 20.1802 25.4799 16.413H21.8299L19.125 25.0594C20.4937 26.1049 20.9337 26.8517 21.2922 27.9138C21.3085 27.9802 21.3574 27.9968 21.4225 27.9968C21.4877 27.9968 21.5203 27.9802 21.5366 27.9138C21.5692 27.8309 23.9156 20.3794 23.9156 20.3794C26.3272 23.8811 28.7062 28.4947 29.9935 33.3738H33.9205L35.8596 27.2002C35.8759 27.1338 35.9248 27.1172 35.99 27.1172C36.0551 27.1172 36.104 27.1338 36.104 27.2002C36.6906 31.067 40.471 33.6726 45.8319 33.6726C49.3027 33.6726 52.4312 32.7432 53.2134 32.3283L55.2502 25.8062H63.0554L63.8538 23.2836H56.0487L57.4011 19.0019H66.7054Z" fill="black"/>
</g>
<defs>
<clipPath id="clip0_1852_323">
<rect width="73" height="39" fill="white" transform="translate(0.0898438)"/>
</clipPath>
</defs>
</svg>
