<svg width="81" height="27" viewBox="0 0 81 27" fill="none" xmlns="http://www.w3.org/2000/svg">
<g clip-path="url(#clip0_1852_334)">
<path d="M52.8032 26.3612V7.68023L52.7359 7.61523H48.1875V26.3612H52.8032Z" fill="#A0FFE8"/>
<path d="M24.4284 26.4906C23.1302 26.384 21.8871 25.7431 21.0934 24.7551C18.9168 22.0485 19.023 16.0763 18.9625 12.7431C18.9611 12.6404 18.9154 12.5455 18.9141 12.4441V7.61458H23.3535L23.4409 14.6086C23.5714 16.6873 23.4853 18.8869 24.0934 20.9058C24.3947 21.9094 25.0956 23.0716 25.6862 21.405C27.0234 17.6337 25.2746 10.6332 29.453 8.24508C30.7472 7.50538 32.4288 7.43518 33.8198 7.95908C38.6521 9.77648 36.9597 17.4816 38.2216 21.2841C38.8041 23.0391 39.4431 22.068 39.6987 20.8707C40.4843 17.1878 39.4579 10.9868 42.9516 8.51288C43.8112 7.90448 44.831 7.62628 45.8964 7.61328V11.8994C45.2951 11.9943 45.0866 12.7743 44.9615 13.2683C44.0332 16.92 45.3166 23.0651 41.8148 25.5975C41.1852 26.0525 40.2287 26.4191 39.4431 26.4893H38.4126C38.2189 26.4217 37.9888 26.4243 37.783 26.3827C31.818 25.175 33.9342 16.7419 32.6091 12.7652C32.4961 12.4246 32.1718 11.642 31.6875 12.006C31.1292 12.4246 30.9086 14.6814 30.8387 15.3847C30.4916 18.8726 30.9355 24.8032 26.7275 26.2189L25.506 26.4893C25.1562 26.4685 24.7755 26.5179 24.4297 26.4893L24.4284 26.4906Z" fill="#A0FFE8"/>
<path d="M80.5426 15.7967V17.3125L80.4982 17.7025H66.4709C66.5436 20.5846 68.9018 22.753 71.9153 22.5515C73.6171 22.4371 75.0014 21.4647 75.6417 19.9502L79.8256 20.9928C78.8139 23.7046 76.3493 25.7209 73.418 26.2981L72.0713 26.4918C71.6005 26.471 71.1041 26.5204 70.6373 26.4918C59.8225 25.8236 58.7732 9.67501 69.0687 7.46371C75.1036 6.16761 80.1646 9.88691 80.5426 15.798V15.7967ZM76.0614 14.4109C75.0807 9.69971 67.5741 9.70751 66.5597 14.4109H76.0614Z" fill="#A0FFE8"/>
<path d="M8.70077 26.4909C6.75953 26.331 4.8277 25.8604 3.21874 24.7515C1.90709 23.848 0.946554 22.5324 0.542969 21.0153L4.81963 19.9155C5.04698 20.4056 5.23666 20.8736 5.57029 21.3104C6.81603 22.9445 9.51736 23.3891 11.4129 22.6819C12.9303 22.1164 13.4981 20.5278 12.0317 19.5281C9.08283 17.517 2.63354 18.6558 1.33803 14.358C0.456871 11.4343 1.93803 8.81218 4.83442 7.79818C8.66579 6.45658 13.9487 7.29378 16.0285 10.9897C16.1805 11.2601 16.6124 12.1402 16.6245 12.408C16.6272 12.4639 16.6097 12.4834 16.5559 12.4977L12.5537 13.5455C12.0869 11.3342 9.84023 10.484 7.69584 10.7804C5.55146 11.0768 4.48331 13.1347 6.74204 14.1591C8.14248 14.7948 10.2452 14.9313 11.8017 15.333C14.9792 16.1546 17.8245 17.5937 17.394 21.2727C16.9823 24.7892 13.6662 26.3037 10.3582 26.4896H8.69943L8.70077 26.4909Z" fill="#A0FFE8"/>
<path d="M58.179 26.4909C57.5615 25.6043 56.9373 24.7216 56.4678 23.7492C55.5449 21.8408 55.144 19.7842 55.0391 17.6821L55.0418 0.990112H59.613L59.6103 17.0763C59.6682 18.0539 59.7206 18.9964 59.948 19.9532C60.2897 21.3923 61.0041 22.6871 61.896 23.8714L58.2234 26.4896H58.179V26.4909Z" fill="#A0FFE8"/>
<path d="M50.8716 0.514142C53.9873 0.836542 54.2066 5.08234 50.9779 5.53084C46.9892 6.08464 46.5587 0.861242 50.1089 0.514142C50.2999 0.495942 50.6806 0.494642 50.8703 0.514142H50.8716Z" fill="#A0FFE8"/>
<path d="M52.8032 26.3612H48.1875V7.61523H52.7359L52.8032 7.68023V26.3612Z" fill="#A0FFE8"/>
</g>
<defs>
<clipPath id="clip0_1852_334">
<rect width="80" height="26" fill="white" transform="translate(0.542969 0.5)"/>
</clipPath>
</defs>
</svg>
