<svg width="70" height="23" viewBox="0 0 70 23" fill="none" xmlns="http://www.w3.org/2000/svg">
<g clip-path="url(#clip0_1852_315)">
<path d="M4.14949 16.4263C4.44107 17.1693 4.84477 17.8046 5.36065 18.3322C5.87652 18.8598 6.48769 19.2636 7.19413 19.5436C7.90065 19.8236 8.66881 19.9635 9.49868 19.9635C10.3061 19.9635 11.0631 19.8182 11.7696 19.5274C12.4761 19.2366 13.0929 18.8275 13.6199 18.2999C14.1469 17.7722 14.5563 17.1424 14.8479 16.4101C15.1395 15.6779 15.2852 14.8596 15.2852 13.9551V0H18.8177V22.6124H15.3189V20.5126C14.5339 21.3094 13.6087 21.9232 12.5433 22.354C11.4779 22.7846 10.3286 23 9.09499 23C7.83894 23 6.66709 22.79 5.57928 22.3701C4.49155 21.9501 3.54949 21.3526 2.75334 20.5772C1.95719 19.8019 1.32913 18.8706 0.869385 17.783C0.409562 16.6955 0.179688 15.4842 0.179688 14.1489V0H3.71215V13.9551C3.71215 14.8596 3.8579 15.6833 4.14949 16.4263Z" fill="#A0FFE8"/>
<path d="M24.9057 0V8.23735C25.6907 7.48361 26.5991 6.88606 27.6307 6.44454C28.6624 6.00301 29.7839 5.78229 30.995 5.78229C32.251 5.78229 33.4284 6.00838 34.5274 6.46062C35.6264 6.91286 36.5795 7.52664 37.387 8.30196C38.1945 9.07729 38.8337 9.99249 39.3047 11.0477C39.7757 12.103 40.0111 13.2229 40.0111 14.4073C40.0111 15.5917 39.7757 16.7062 39.3047 17.7507C38.8337 18.7952 38.1945 19.7051 37.387 20.4803C36.5795 21.2556 35.6264 21.8694 34.5274 22.3216C33.4284 22.7738 32.2509 22.9999 30.995 22.9999C29.7838 22.9999 28.6568 22.7792 27.6139 22.3377C26.571 21.8962 25.657 21.2986 24.872 20.5449V22.6123H21.5078V0H24.9057ZM25.2926 16.6362C25.5953 17.3254 26.0159 17.9284 26.5542 18.4453C27.0925 18.9621 27.7205 19.3713 28.4381 19.6728C29.1559 19.9743 29.9296 20.1251 30.7595 20.1251C31.567 20.1251 32.3295 19.9743 33.0472 19.6728C33.7649 19.3713 34.3872 18.9622 34.9144 18.4453C35.4414 17.9285 35.8619 17.3254 36.1759 16.6362C36.4899 15.9471 36.6469 15.2042 36.6469 14.4073C36.6469 13.6105 36.4899 12.8621 36.1759 12.1622C35.8619 11.4623 35.4414 10.8539 34.9144 10.3371C34.3873 9.8203 33.7649 9.41645 33.0472 9.12575C32.3294 8.83505 31.5669 8.68959 30.7595 8.68959C29.9521 8.68959 29.1895 8.83498 28.4719 9.12575C27.7542 9.41652 27.1262 9.8203 26.5878 10.3371C26.0496 10.8539 25.6234 11.4623 25.3095 12.1622C24.9955 12.8621 24.8385 13.6105 24.8385 14.4073C24.8384 15.2042 24.9898 15.9471 25.2926 16.6362Z" fill="#A0FFE8"/>
<path d="M41.9305 11.0798C42.379 10.0461 42.9959 9.13625 43.7808 8.35021C44.5658 7.56416 45.4966 6.94502 46.5732 6.49278C47.6498 6.04054 48.8161 5.81445 50.072 5.81445C51.3056 5.81445 52.4495 6.02982 53.5036 6.46047C54.5577 6.8912 55.466 7.48883 56.2286 8.25336C56.9912 9.01781 57.5856 9.92237 58.0116 10.9668C58.4378 12.0113 58.6509 13.1473 58.6509 14.3749V15.4409H44.6893C44.8014 16.1085 45.0257 16.7277 45.3621 17.2983C45.6986 17.8689 46.119 18.3643 46.6237 18.7842C47.1283 19.2042 47.7003 19.5327 48.3395 19.7695C48.9787 20.0064 49.6571 20.1249 50.3749 20.1249C52.4159 20.1249 54.0644 19.3172 55.3204 17.702L57.7762 19.4464C56.924 20.5447 55.8699 21.4062 54.6139 22.0307C53.3579 22.6552 51.9449 22.9675 50.3749 22.9675C49.0965 22.9675 47.9022 22.752 46.792 22.3214C45.6818 21.8907 44.7174 21.2877 43.8988 20.5123C43.0801 19.737 42.4353 18.8272 41.9643 17.7827C41.4933 16.7383 41.2578 15.6022 41.2578 14.3747C41.2577 13.2119 41.482 12.1135 41.9305 11.0798ZM46.6573 9.80379C45.7041 10.5683 45.0705 11.5859 44.7565 12.8565H55.2194C54.9278 11.5859 54.3054 10.5683 53.3522 9.80379C52.399 9.03933 51.2832 8.65707 50.0048 8.65707C48.7264 8.65707 47.6106 9.03933 46.6573 9.80379Z" fill="#A0FFE8"/>
<path d="M65.0058 10.176C64.2881 10.9297 63.9292 11.9526 63.9292 13.2448V22.6129H60.5312V6.13809H63.8955V8.17322C64.3216 7.50561 64.8768 6.97796 65.5608 6.59033C66.2448 6.20264 67.0579 6.00879 67.9999 6.00879H69.1774V9.04532H67.7644C66.643 9.04539 65.7235 9.42222 65.0058 10.176Z" fill="#A0FFE8"/>
</g>
<defs>
<clipPath id="clip0_1852_315">
<rect width="69" height="23" fill="white" transform="translate(0.179688)"/>
</clipPath>
</defs>
</svg>
